<svg xmlns="http://www.w3.org/2000/svg" viewBox="173 163 677 576">
  <path fill="rgba(254,208,80,1.000)" d="M 493.07 175.97 C 485.02 178.77, 478.30 184.20, 474.52 191.92 C 457.36 192.54, 440.19 194.25, 423.02 196.10 C 402.09 198.59, 381.41 201.52, 361.03 207.08 C 347.63 211.13, 334.71 214.82, 322.01 221.01 C 312.11 225.51, 302.67 232.51, 296.38 241.45 C 292.35 247.43, 293.47 253.25, 293.58 260.00 C 293.37 281.98, 293.38 303.97, 293.61 325.95 C 293.73 326.77, 293.38 327.26, 292.58 327.42 C 282.45 330.41, 273.00 336.33, 264.45 342.42 C 252.95 351.10, 242.84 360.95, 235.31 373.32 C 231.70 379.04, 228.57 384.78, 227.42 391.53 C 225.61 399.83, 227.97 408.89, 234.30 414.70 C 240.01 420.10, 247.03 424.50, 254.64 426.60 C 248.66 435.68, 243.29 445.07, 239.21 455.17 C 231.75 471.38, 228.24 488.40, 225.90 505.98 C 221.09 509.49, 216.72 513.34, 212.86 517.88 C 202.19 529.30, 193.02 542.82, 187.53 557.51 C 183.88 567.72, 182.61 579.54, 187.37 589.61 C 191.40 598.60, 200.06 605.04, 209.83 606.28 C 210.79 614.72, 216.80 621.70, 225.18 623.49 C 235.46 625.62, 246.62 622.49, 254.79 616.02 C 261.86 623.46, 268.35 632.28, 276.55 638.42 C 291.29 650.80, 308.09 661.09, 326.16 667.82 C 333.34 670.88, 341.03 673.02, 348.50 675.54 C 348.86 679.04, 349.52 682.48, 350.18 685.93 C 339.90 689.82, 332.41 702.73, 336.57 713.43 C 339.04 718.79, 344.02 723.72, 349.79 725.34 C 361.77 728.84, 373.63 729.09, 386.00 729.22 C 399.02 729.69, 412.03 729.31, 425.00 728.04 C 432.18 727.26, 438.90 725.40, 444.08 720.08 C 450.31 713.77, 452.82 703.43, 454.70 695.01 C 490.38 697.02, 526.12 697.72, 561.81 695.17 C 563.90 695.02, 565.99 694.94, 568.08 694.85 C 570.11 703.85, 573.14 714.46, 580.04 720.96 C 584.51 725.69, 590.79 727.18, 597.02 727.94 C 611.90 729.66, 627.04 729.50, 642.00 729.39 C 652.12 728.66, 662.85 728.51, 672.48 725.51 C 678.24 724.18, 683.09 720.19, 686.32 715.34 C 689.73 709.04, 688.05 701.37, 684.52 695.50 C 681.82 691.11, 677.90 688.69, 673.78 685.84 C 674.15 682.32, 674.50 678.81, 675.02 675.32 C 688.92 671.35, 702.40 665.79, 715.31 659.30 C 735.51 648.53, 753.96 634.07, 767.96 615.85 C 772.56 619.80, 778.33 622.20, 784.15 623.69 C 792.02 625.68, 800.66 624.17, 807.04 619.05 C 810.89 615.86, 812.75 611.43, 813.67 606.62 C 824.65 605.03, 834.80 596.27, 837.58 585.49 C 839.12 577.78, 839.16 569.58, 837.12 561.94 C 833.66 548.96, 826.14 536.66, 817.74 526.26 C 811.53 518.38, 804.13 511.89, 796.79 505.12 C 795.58 489.39, 791.56 474.16, 785.68 459.56 C 781.51 448.13, 775.73 437.49, 768.98 427.40 C 775.52 424.93, 781.40 421.18, 786.81 416.80 C 791.72 412.64, 795.42 407.26, 796.48 400.82 C 797.88 393.08, 795.54 385.84, 791.90 379.09 C 788.31 371.99, 783.52 365.72, 778.11 359.91 C 765.32 345.45, 748.75 333.80, 730.55 327.28 C 730.20 316.51, 730.66 305.76, 730.46 295.00 C 730.29 283.33, 730.56 271.67, 730.54 260.00 C 730.50 256.03, 731.10 251.77, 729.98 247.99 C 727.80 239.93, 722.43 233.06, 715.48 228.52 C 697.68 216.14, 674.97 210.20, 654.22 204.69 C 626.93 198.75, 598.79 195.35, 570.97 193.01 C 563.73 192.34, 556.48 192.24, 549.22 192.04 C 548.70 191.14, 548.19 190.22, 547.66 189.33 C 545.21 185.49, 542.51 181.84, 538.61 179.37 C 531.49 174.86, 523.34 173.34, 515.00 173.49 C 507.82 173.67, 499.90 173.64, 493.07 175.97 Z"/>
  <path fill="rgba(43,22,12,1.000)" d="M 515.00 173.49 C 523.34 173.34, 531.49 174.86, 538.61 179.37 C 542.51 181.84, 545.21 185.49, 547.66 189.33 C 545.55 189.09, 543.17 187.57, 541.40 189.34 C 541.81 193.48, 545.07 197.18, 543.22 201.67 C 542.08 198.95, 540.93 196.32, 539.38 193.80 C 536.81 190.18, 533.93 187.01, 529.73 185.28 C 523.11 182.42, 514.79 182.96, 507.71 183.23 C 500.63 183.61, 493.86 185.03, 488.22 189.58 C 487.84 185.35, 491.11 185.13, 493.41 182.45 C 494.24 181.19, 494.50 179.48, 494.80 178.01 C 494.24 177.32, 493.67 176.64, 493.07 175.97 C 499.90 173.64, 507.82 173.67, 515.00 173.49 Z"/>
  <path fill="rgba(51,29,17,1.000)" d="M 493.07 175.97 C 493.67 176.64, 494.24 177.32, 494.80 178.01 C 494.50 179.48, 494.24 181.19, 493.41 182.45 C 491.11 185.13, 487.84 185.35, 488.22 189.58 C 480.96 196.27, 478.86 205.49, 478.48 215.01 C 478.65 216.15, 478.90 217.28, 479.24 218.39 C 478.59 218.51, 477.94 218.62, 477.28 218.72 C 476.66 217.66, 476.05 216.57, 475.33 215.56 C 473.93 214.94, 471.96 215.41, 470.52 215.58 C 466.39 216.73, 462.26 216.76, 458.05 217.19 C 462.63 217.98, 467.08 219.35, 471.70 219.97 C 471.93 220.50, 472.16 221.02, 472.40 221.54 C 471.78 221.95, 471.15 222.35, 470.52 222.76 C 470.29 223.39, 470.05 224.01, 469.82 224.64 C 462.43 223.48, 455.43 221.08, 448.04 219.99 C 443.08 219.67, 437.82 221.25, 433.09 222.63 C 432.29 222.05, 431.50 221.46, 430.70 220.87 C 433.47 219.51, 436.18 217.90, 439.04 216.76 C 442.38 216.10, 445.65 215.39, 449.07 215.43 C 450.82 215.47, 452.32 214.63, 453.63 213.56 C 454.67 212.40, 453.40 211.14, 452.88 210.07 C 447.87 210.75, 443.41 211.92, 438.48 209.99 C 448.90 208.92, 459.38 207.60, 469.87 207.43 C 470.36 205.78, 470.86 204.12, 471.36 202.47 C 456.55 202.87, 441.73 204.24, 427.04 206.07 C 418.46 206.95, 409.92 208.06, 401.42 209.55 C 395.98 210.31, 390.58 211.35, 385.20 212.50 C 364.08 216.38, 343.73 221.89, 324.56 231.79 C 319.04 234.47, 314.00 238.36, 309.79 242.80 C 306.40 246.66, 303.81 250.84, 305.73 256.13 C 307.59 262.83, 313.58 266.49, 319.20 269.81 C 333.93 278.21, 351.56 283.05, 367.98 286.93 C 395.92 292.65, 424.24 296.88, 452.71 298.73 C 484.40 301.08, 516.26 301.45, 548.00 300.16 C 573.26 298.90, 598.40 297.07, 623.39 293.07 C 623.98 293.71, 623.98 293.71, 624.58 294.36 C 627.95 294.54, 632.18 292.49, 635.41 293.62 C 637.10 294.04, 636.53 296.37, 636.84 297.69 C 635.29 297.88, 633.75 298.06, 632.20 298.26 C 632.67 298.96, 632.67 298.96, 633.14 299.67 C 616.75 301.78, 600.49 304.51, 583.99 305.76 C 565.04 307.13, 546.01 308.34, 527.00 308.43 C 490.68 308.94, 454.04 307.87, 417.99 303.22 C 407.66 301.91, 397.29 300.72, 387.01 299.10 C 368.98 295.68, 350.73 291.70, 333.46 285.53 C 327.48 283.43, 321.78 280.71, 316.16 277.79 C 311.88 275.50, 307.71 273.30, 304.28 269.78 C 305.34 276.97, 304.59 284.39, 304.92 291.65 C 304.91 292.67, 304.91 293.70, 304.90 294.72 C 304.81 303.82, 305.28 312.89, 305.05 322.00 C 305.25 324.67, 304.38 328.48, 306.55 330.44 C 310.14 333.95, 314.71 336.62, 319.20 338.79 C 326.04 342.07, 332.80 345.18, 340.09 347.38 C 345.46 349.10, 350.75 351.14, 356.20 352.62 C 386.24 360.38, 416.64 364.50, 447.50 367.22 C 469.25 368.63, 491.20 370.00, 513.00 369.82 C 529.32 369.93, 545.71 369.17, 562.01 368.27 C 571.69 367.81, 581.31 366.37, 590.97 365.57 C 617.04 363.41, 642.87 359.20, 668.16 352.48 C 678.18 350.01, 688.07 346.72, 697.50 342.53 C 699.67 344.56, 700.87 347.55, 704.36 346.67 C 709.51 344.89, 714.45 342.21, 718.94 339.13 C 718.69 340.09, 718.44 341.06, 718.19 342.03 C 708.55 348.57, 697.56 353.60, 686.79 357.95 C 683.52 359.15, 680.17 360.11, 676.86 361.18 C 655.36 367.32, 633.20 371.40, 611.00 373.97 C 588.11 376.81, 565.06 378.90, 542.00 379.58 C 522.35 379.61, 502.64 380.28, 483.00 379.50 C 464.29 379.13, 445.59 377.87, 426.97 376.03 C 408.94 373.92, 391.14 371.84, 373.48 367.44 C 364.70 365.58, 356.00 363.75, 347.47 360.90 C 333.52 356.52, 319.27 351.09, 307.10 342.87 C 304.76 341.45, 302.57 339.02, 300.07 338.06 C 290.46 340.13, 281.22 345.52, 273.35 351.30 C 266.92 355.68, 261.34 361.39, 255.88 366.89 C 248.92 374.80, 241.29 384.54, 238.84 394.96 C 237.41 401.24, 241.26 406.38, 246.09 409.86 C 255.95 416.73, 268.11 420.81, 279.81 423.17 C 289.19 425.14, 300.94 423.92, 308.36 417.34 C 313.93 411.90, 317.87 404.28, 321.42 397.42 C 325.41 389.59, 328.15 381.18, 332.47 373.46 C 333.11 372.28, 334.02 371.36, 335.00 370.46 C 339.37 369.93, 338.73 376.45, 338.15 379.11 C 335.89 387.08, 332.87 394.89, 329.68 402.53 C 324.34 414.02, 318.22 424.50, 306.71 430.73 C 293.55 437.31, 279.48 435.53, 265.97 431.13 C 262.76 436.88, 259.08 442.27, 256.24 448.24 C 251.70 457.70, 247.85 467.54, 244.49 477.48 C 240.03 493.23, 237.73 509.64, 237.52 526.00 C 238.01 545.42, 240.93 565.11, 249.35 582.78 C 257.00 600.77, 269.93 616.70, 284.94 629.09 C 295.35 638.08, 307.21 645.43, 319.58 651.41 C 337.69 659.80, 356.51 665.66, 375.96 670.04 C 395.33 674.76, 415.21 677.66, 435.01 679.91 C 454.52 682.30, 474.36 683.06, 494.00 683.90 C 510.56 684.08, 527.47 684.29, 544.01 683.15 C 560.05 682.32, 576.06 681.57, 592.01 679.53 C 616.17 676.73, 640.60 672.66, 664.01 666.00 C 683.06 660.06, 701.32 653.95, 718.42 643.43 C 741.61 628.92, 761.84 609.27, 772.87 583.87 C 775.30 577.56, 777.81 571.25, 779.76 564.77 C 788.82 533.18, 786.46 498.33, 775.50 467.52 C 773.36 460.63, 770.00 454.43, 766.81 448.01 C 767.59 447.73, 768.38 447.45, 769.17 447.17 C 770.54 450.36, 771.48 453.54, 773.77 456.17 C 773.74 453.62, 773.08 451.24, 772.39 448.80 C 774.22 449.58, 775.19 450.11, 776.21 451.88 C 777.68 454.31, 780.01 455.08, 782.06 456.88 C 782.78 458.36, 782.89 460.19, 783.21 461.78 C 784.03 461.04, 784.85 460.30, 785.68 459.56 C 791.56 474.16, 795.58 489.39, 796.79 505.12 C 804.13 511.89, 811.53 518.38, 817.74 526.26 C 826.14 536.66, 833.66 548.96, 837.12 561.94 C 839.16 569.58, 839.12 577.78, 837.58 585.49 C 834.80 596.27, 824.65 605.03, 813.67 606.62 C 812.75 611.43, 810.89 615.86, 807.04 619.05 C 800.66 624.17, 792.02 625.68, 784.15 623.69 C 778.33 622.20, 772.56 619.80, 767.96 615.85 C 753.96 634.07, 735.51 648.53, 715.31 659.30 C 702.40 665.79, 688.92 671.35, 675.02 675.32 C 674.50 678.81, 674.15 682.32, 673.78 685.84 C 677.90 688.69, 681.82 691.11, 684.52 695.50 C 688.05 701.37, 689.73 709.04, 686.32 715.34 C 683.09 720.19, 678.24 724.18, 672.48 725.51 C 662.85 728.51, 652.12 728.66, 642.00 729.39 C 627.04 729.50, 611.90 729.66, 597.02 727.94 C 590.79 727.18, 584.51 725.69, 580.04 720.96 C 573.14 714.46, 570.11 703.85, 568.08 694.85 C 565.99 694.94, 563.90 695.02, 561.81 695.17 C 526.12 697.72, 490.38 697.02, 454.70 695.01 C 452.82 703.43, 450.31 713.77, 444.08 720.08 C 438.90 725.40, 432.18 727.26, 425.00 728.04 C 412.03 729.31, 399.02 729.69, 386.00 729.22 C 373.63 729.09, 361.77 728.84, 349.79 725.34 C 344.02 723.72, 339.04 718.79, 336.57 713.43 C 332.41 702.73, 339.90 689.82, 350.18 685.93 C 349.52 682.48, 348.86 679.04, 348.50 675.54 C 341.03 673.02, 333.34 670.88, 326.16 667.82 C 308.09 661.09, 291.29 650.80, 276.55 638.42 C 268.35 632.28, 261.86 623.46, 254.79 616.02 C 246.62 622.49, 235.46 625.62, 225.18 623.49 C 216.80 621.70, 210.79 614.72, 209.83 606.28 C 200.06 605.04, 191.40 598.60, 187.37 589.61 C 182.61 579.54, 183.88 567.72, 187.53 557.51 C 193.02 542.82, 202.19 529.30, 212.86 517.88 C 216.72 513.34, 221.09 509.49, 225.90 505.98 C 228.24 488.40, 231.75 471.38, 239.21 455.17 C 243.29 445.07, 248.66 435.68, 254.64 426.60 C 247.03 424.50, 240.01 420.10, 234.30 414.70 C 227.97 408.89, 225.61 399.83, 227.42 391.53 C 228.57 384.78, 231.70 379.04, 235.31 373.32 C 242.84 360.95, 252.95 351.10, 264.45 342.42 C 273.00 336.33, 282.45 330.41, 292.58 327.42 C 293.38 327.26, 293.73 326.77, 293.61 325.95 C 293.38 303.97, 293.37 281.98, 293.58 260.00 C 293.47 253.25, 292.35 247.43, 296.38 241.45 C 302.67 232.51, 312.11 225.51, 322.01 221.01 C 334.71 214.82, 347.63 211.13, 361.03 207.08 C 381.41 201.52, 402.09 198.59, 423.02 196.10 C 440.19 194.25, 457.36 192.54, 474.52 191.92 C 478.30 184.20, 485.02 178.77, 493.07 175.97 Z"/>
  <path fill="rgba(51,29,17,1.000)" d="M 248.24 606.22 C 238.60 590.77, 231.49 573.46, 228.34 555.48 C 226.32 544.48, 225.32 532.97, 225.44 521.80 C 215.59 531.92, 206.80 543.36, 201.33 556.48 C 198.22 563.46, 196.33 571.35, 196.68 579.01 C 197.05 585.68, 201.53 591.14, 207.76 593.30 C 211.25 594.47, 214.45 593.99, 218.01 594.21 C 219.74 594.26, 220.85 595.56, 221.73 596.90 C 222.18 600.50, 219.97 604.46, 222.16 607.80 C 224.85 611.64, 229.56 612.71, 234.01 612.29 C 239.11 611.70, 244.43 609.76, 248.24 606.22 Z"/>
  <path fill="rgba(51,29,17,1.000)" d="M 797.71 522.30 C 797.84 539.68, 795.22 557.30, 789.62 573.78 C 786.04 585.07, 781.01 596.12, 774.44 605.98 C 779.39 609.62, 784.73 612.33, 791.00 612.58 C 795.00 612.82, 799.76 611.55, 801.50 607.55 C 803.31 603.73, 801.44 598.76, 802.36 595.30 C 802.57 593.99, 805.01 594.25, 805.96 594.20 C 810.90 594.47, 815.39 594.57, 819.65 591.68 C 824.45 588.05, 826.59 581.83, 826.75 576.00 C 826.83 568.72, 824.21 561.14, 821.34 554.53 C 816.21 542.49, 806.24 532.00, 797.71 522.30 Z"/>
  <path fill="rgba(51,29,17,1.000)" d="M 359.61 677.92 C 360.36 682.86, 362.30 687.99, 362.16 692.99 C 359.97 694.64, 356.93 695.07, 354.60 696.62 C 350.66 699.08, 347.09 703.04, 347.74 708.04 C 348.23 711.15, 350.86 712.47, 353.53 713.45 C 360.54 715.74, 368.68 716.00, 376.00 716.47 C 391.61 717.15, 407.44 717.33, 423.01 715.85 C 427.50 715.14, 433.90 714.85, 436.23 710.23 C 439.05 704.72, 440.91 698.64, 442.86 692.78 C 423.21 690.29, 403.91 688.61, 384.53 684.21 C 376.07 682.63, 367.72 680.85, 359.61 677.92 Z"/>
  <path fill="rgba(51,29,17,1.000)" d="M 580.50 692.95 C 580.63 696.14, 581.97 698.88, 583.06 701.85 C 584.61 705.86, 586.55 710.23, 590.00 712.97 C 592.73 714.94, 596.72 715.43, 599.99 715.83 C 614.63 717.06, 629.13 716.93, 643.80 716.76 C 652.61 716.38, 661.00 715.90, 669.53 713.45 C 671.98 712.73, 674.10 711.41, 675.06 708.94 C 676.41 705.10, 674.41 701.06, 671.50 698.52 C 668.35 695.50, 664.66 694.78, 660.77 693.06 C 661.34 688.19, 662.43 683.39, 663.22 678.54 C 654.90 680.95, 646.53 682.83, 638.02 684.47 C 619.17 688.77, 599.71 690.89, 580.50 692.95 Z"/>
  <path fill="rgba(253,210,138,1.000)" d="M 507.71 183.23 C 510.38 183.56, 513.04 183.91, 515.73 184.07 C 514.98 184.84, 514.20 185.60, 513.54 186.45 C 512.87 187.94, 513.90 189.51, 514.45 190.87 C 511.84 191.01, 509.28 191.41, 506.73 191.92 C 499.11 192.10, 491.94 196.21, 489.67 203.78 C 487.83 203.51, 486.02 203.32, 484.16 203.62 C 482.34 208.70, 484.24 213.04, 480.37 216.99 C 481.33 217.16, 482.29 217.32, 483.25 217.48 C 481.93 217.85, 480.59 218.14, 479.24 218.39 C 478.90 217.28, 478.65 216.15, 478.48 215.01 C 478.86 205.49, 480.96 196.27, 488.22 189.58 C 493.86 185.03, 500.63 183.61, 507.71 183.23 Z"/>
  <path fill="rgba(249,199,121,1.000)" d="M 507.71 183.23 C 514.79 182.96, 523.11 182.42, 529.73 185.28 C 533.93 187.01, 536.81 190.18, 539.38 193.80 C 539.02 194.98, 538.66 196.16, 538.30 197.34 C 537.03 197.67, 535.75 198.00, 534.48 198.33 C 535.85 200.91, 536.14 201.70, 535.09 204.57 C 533.56 200.58, 531.38 195.54, 527.06 193.92 C 520.57 191.17, 513.60 192.13, 506.73 191.92 C 509.28 191.41, 511.84 191.01, 514.45 190.87 C 513.90 189.51, 512.87 187.94, 513.54 186.45 C 514.20 185.60, 514.98 184.84, 515.73 184.07 C 513.04 183.91, 510.38 183.56, 507.71 183.23 Z"/>
  <path fill="rgba(54,30,17,1.000)" d="M 547.66 189.33 C 548.19 190.22, 548.70 191.14, 549.22 192.04 C 556.48 192.24, 563.73 192.34, 570.97 193.01 C 598.79 195.35, 626.93 198.75, 654.22 204.69 C 674.97 210.20, 697.68 216.14, 715.48 228.52 C 722.43 233.06, 727.80 239.93, 729.98 247.99 C 731.10 251.77, 730.50 256.03, 730.54 260.00 C 730.56 271.67, 730.29 283.33, 730.46 295.00 C 730.66 305.76, 730.20 316.51, 730.55 327.28 C 748.75 333.80, 765.32 345.45, 778.11 359.91 C 783.52 365.72, 788.31 371.99, 791.90 379.09 C 795.54 385.84, 797.88 393.08, 796.48 400.82 C 795.42 407.26, 791.72 412.64, 786.81 416.80 C 781.40 421.18, 775.52 424.93, 768.98 427.40 C 775.73 437.49, 781.51 448.13, 785.68 459.56 C 784.85 460.30, 784.03 461.04, 783.21 461.78 C 782.89 460.19, 782.78 458.36, 782.06 456.88 C 780.01 455.08, 777.68 454.31, 776.21 451.88 C 775.19 450.11, 774.22 449.58, 772.39 448.80 C 773.08 451.24, 773.74 453.62, 773.77 456.17 C 771.48 453.54, 770.54 450.36, 769.17 447.17 C 768.38 447.45, 767.59 447.73, 766.81 448.01 C 763.79 442.12, 760.36 436.35, 756.59 430.91 C 747.73 434.80, 737.54 435.82, 727.99 434.85 C 719.19 434.14, 710.85 428.25, 705.32 421.64 C 700.27 415.11, 695.84 407.90, 692.92 400.15 C 689.59 391.81, 686.17 383.00, 685.02 374.05 C 685.54 372.09, 685.47 370.83, 687.83 370.48 C 690.83 372.15, 692.12 375.46, 693.64 378.36 C 698.46 389.17, 703.17 400.44, 709.61 410.39 C 713.60 416.63, 719.13 421.66, 726.48 423.41 C 734.15 425.16, 742.31 423.89, 749.79 421.82 C 756.09 420.00, 762.29 418.16, 768.14 415.14 C 773.87 412.30, 780.18 409.24, 783.27 403.30 C 785.27 399.80, 785.60 396.33, 784.53 392.45 C 782.27 384.40, 776.36 377.26, 771.16 370.87 C 760.66 357.90, 747.03 348.01, 731.92 341.06 C 729.38 339.98, 726.67 338.90, 723.95 338.43 C 721.84 339.09, 720.07 340.88, 718.19 342.03 C 718.44 341.06, 718.69 340.09, 718.94 339.13 C 714.45 342.21, 709.51 344.89, 704.36 346.67 C 700.87 347.55, 699.67 344.56, 697.50 342.53 C 704.71 339.17, 711.42 335.77, 717.28 330.27 C 718.13 329.34, 719.08 328.33, 719.27 327.04 C 719.88 321.44, 719.29 315.64, 719.49 310.01 C 719.69 304.55, 719.79 299.11, 719.57 293.65 C 719.53 292.66, 719.49 291.66, 719.46 290.67 C 719.53 283.38, 719.57 276.10, 719.51 268.81 C 718.67 269.54, 717.83 270.27, 716.99 271.00 C 715.41 270.87, 713.68 270.29, 712.26 271.28 C 710.25 272.69, 708.72 274.43, 706.32 275.23 C 703.20 276.25, 700.63 278.22, 697.63 279.45 C 691.63 281.48, 684.68 284.89, 678.31 285.67 C 677.49 284.97, 676.75 284.21, 675.98 283.45 C 679.09 283.15, 682.06 282.80, 684.89 281.40 C 684.59 280.68, 684.28 279.96, 683.98 279.24 C 693.06 275.96, 702.47 271.94, 710.38 266.35 C 714.68 263.42, 717.74 259.05, 719.18 254.08 C 719.67 250.30, 718.01 247.27, 715.75 244.41 C 711.66 239.39, 706.01 235.46, 700.38 232.34 C 691.20 227.49, 681.53 223.18, 671.46 220.54 C 652.60 214.43, 632.73 211.05, 613.13 208.32 C 592.85 205.44, 572.25 202.79, 551.75 202.63 C 552.15 204.27, 552.57 205.92, 553.08 207.53 C 571.42 208.38, 589.75 210.56, 608.00 212.55 C 611.44 212.91, 614.86 213.41, 618.26 214.01 C 625.71 215.29, 633.10 216.81, 640.48 218.44 C 658.68 222.11, 678.16 227.70, 693.86 237.90 C 698.05 240.89, 701.37 244.55, 701.31 250.01 C 700.95 255.23, 696.96 259.04, 693.22 262.22 C 682.00 269.04, 669.74 273.08, 657.00 275.99 C 643.56 279.29, 629.91 281.87, 616.18 283.59 C 599.58 286.20, 582.76 287.59, 566.00 288.77 C 548.50 290.20, 531.43 290.07, 514.00 290.53 C 500.18 290.69, 486.31 290.02, 472.50 289.65 C 442.34 288.14, 412.48 285.40, 382.80 279.65 C 373.65 277.66, 364.84 276.01, 355.98 273.01 C 347.21 270.13, 337.52 267.27, 329.85 262.03 C 326.89 259.73, 324.49 257.04, 323.03 253.56 C 323.65 251.52, 324.25 249.48, 324.85 247.43 C 326.33 248.02, 327.81 248.59, 329.30 249.17 C 330.01 251.83, 331.13 253.15, 333.18 254.91 C 341.16 249.04, 349.06 244.34, 358.13 240.31 C 367.69 235.86, 377.61 232.03, 387.49 228.39 C 396.71 225.72, 405.83 222.79, 415.02 220.05 C 421.12 218.18, 427.15 217.44, 433.11 215.07 C 431.99 215.14, 431.99 215.14, 430.87 215.22 C 432.56 213.83, 434.45 212.70, 436.14 211.32 C 436.19 210.75, 436.19 210.75, 436.25 210.18 C 436.99 210.11, 437.74 210.04, 438.48 209.99 C 443.41 211.92, 447.87 210.75, 452.88 210.07 C 453.40 211.14, 454.67 212.40, 453.63 213.56 C 452.32 214.63, 450.82 215.47, 449.07 215.43 C 445.65 215.39, 442.38 216.10, 439.04 216.76 C 436.18 217.90, 433.47 219.51, 430.70 220.87 C 431.50 221.46, 432.29 222.05, 433.09 222.63 C 427.95 224.14, 422.77 225.59, 417.54 226.79 C 430.49 229.56, 443.41 232.44, 456.07 236.36 C 461.81 233.14, 467.07 229.01, 472.35 225.08 C 471.51 224.93, 470.66 224.79, 469.82 224.64 C 470.05 224.01, 470.29 223.39, 470.52 222.76 C 471.15 222.35, 471.78 221.95, 472.40 221.54 C 472.16 221.02, 471.93 220.50, 471.70 219.97 C 471.22 218.53, 470.85 217.06, 470.52 215.58 C 471.96 215.41, 473.93 214.94, 475.33 215.56 C 476.05 216.57, 476.66 217.66, 477.28 218.72 C 477.94 218.62, 478.59 218.51, 479.24 218.39 C 480.59 218.14, 481.93 217.85, 483.25 217.48 C 484.98 216.96, 486.68 216.19, 488.35 215.48 C 488.30 211.52, 488.61 207.61, 489.67 203.78 C 491.94 196.21, 499.11 192.10, 506.73 191.92 C 513.60 192.13, 520.57 191.17, 527.06 193.92 C 531.38 195.54, 533.56 200.58, 535.09 204.57 C 535.71 207.21, 535.96 209.88, 536.22 212.58 C 539.05 213.45, 541.91 214.21, 544.82 214.76 C 545.49 210.16, 544.33 206.07, 543.22 201.67 C 545.07 197.18, 541.81 193.48, 541.40 189.34 C 543.17 187.57, 545.55 189.09, 547.66 189.33 Z"/>
  <path fill="rgba(54,30,17,1.000)" d="M 495.89 208.85 C 497.80 208.50, 499.69 208.14, 501.62 207.94 C 507.02 207.62, 512.63 207.08, 518.01 207.45 C 521.99 207.69, 525.86 208.41, 529.83 208.85 C 529.22 206.24, 528.25 203.86, 526.48 201.81 C 524.66 201.07, 522.93 201.29, 521.00 201.25 C 514.03 201.33, 506.97 201.29, 500.04 202.09 C 496.78 202.59, 495.92 206.02, 495.89 208.85 Z"/>
  <path fill="rgba(54,30,17,1.000)" d="M 418.02 277.89 C 432.00 279.30, 445.96 280.83, 459.99 281.68 C 461.61 281.65, 463.53 282.30, 464.67 280.80 C 470.61 273.94, 477.65 268.42, 484.33 262.33 C 500.92 248.06, 519.51 235.59, 539.52 226.68 C 541.87 225.74, 544.17 224.68, 546.48 223.66 C 553.71 221.38, 560.92 219.17, 568.21 217.04 C 562.71 216.68, 557.24 216.44, 551.78 215.71 C 551.30 217.22, 550.83 218.72, 550.36 220.23 C 548.91 221.02, 547.46 221.82, 545.98 222.55 C 545.02 222.33, 545.02 222.33, 544.05 222.12 C 542.00 221.44, 539.95 220.76, 537.88 220.13 C 531.67 218.40, 526.40 215.91, 520.01 215.09 C 517.04 214.74, 514.01 214.05, 511.01 214.13 C 502.83 215.21, 495.62 218.53, 488.50 222.53 C 477.01 227.64, 467.20 235.48, 456.88 242.84 C 449.11 248.34, 441.91 254.48, 435.08 261.10 C 428.99 266.31, 424.11 272.67, 418.02 277.89 Z"/>
  <path fill="rgba(54,30,17,1.000)" d="M 594.73 216.25 C 599.72 217.88, 605.02 218.17, 610.01 219.88 C 619.57 223.07, 629.41 225.43, 638.62 229.38 C 648.99 233.54, 659.37 236.45, 669.38 241.62 C 676.81 245.41, 684.33 248.80, 691.09 253.76 C 692.13 252.11, 694.21 250.32, 693.83 248.21 C 693.43 245.69, 691.98 243.60, 689.99 242.04 C 685.39 238.41, 679.73 235.80, 674.30 233.68 C 663.22 229.07, 651.65 225.50, 639.85 223.33 C 628.97 220.84, 618.07 218.61, 606.99 217.22 C 602.87 216.73, 598.90 216.04, 594.73 216.25 Z"/>
  <path fill="rgba(54,30,17,1.000)" d="M 556.24 226.73 C 556.29 227.39, 556.33 228.05, 556.38 228.71 C 561.51 230.97, 566.01 234.06, 570.93 236.92 C 581.47 232.14, 592.90 228.88, 604.07 225.90 C 597.03 223.53, 589.79 222.11, 582.53 220.57 C 578.81 219.66, 574.52 221.28, 570.82 221.95 C 565.73 222.95, 561.31 225.81, 556.24 226.73 Z"/>
  <path fill="rgba(54,30,17,1.000)" d="M 392.98 233.47 C 384.99 235.85, 377.18 238.70, 369.88 242.79 C 379.24 244.53, 388.55 246.64, 397.85 248.66 C 399.66 249.09, 401.45 249.56, 403.25 249.99 C 400.58 250.91, 399.45 252.52, 398.04 254.80 C 394.36 253.90, 390.72 252.52, 386.97 252.01 C 383.92 252.23, 381.00 254.87, 378.69 256.69 C 374.26 260.50, 369.82 264.30, 365.44 268.16 C 371.97 269.44, 378.42 271.08, 384.98 272.24 C 393.97 274.05, 402.96 274.93, 411.87 277.13 C 415.73 271.63, 420.87 267.43, 425.07 262.25 C 424.36 262.11, 424.36 262.11, 423.66 261.97 C 425.48 260.80, 427.34 259.68, 429.16 258.52 C 430.15 257.86, 431.10 257.15, 432.01 256.39 C 438.32 250.53, 444.23 244.58, 451.87 240.39 C 438.93 237.52, 426.39 233.12, 413.08 231.19 C 409.72 230.79, 405.75 229.48, 402.47 230.54 C 399.28 231.42, 396.15 232.50, 392.98 233.47 Z"/>
  <path fill="rgba(54,30,17,1.000)" d="M 519.96 243.02 C 528.34 248.04, 536.63 253.35, 544.64 258.93 C 553.54 265.58, 561.86 272.71, 569.19 281.09 C 570.60 281.10, 572.01 281.09, 573.42 281.07 C 581.72 280.54, 590.01 279.71, 598.26 278.70 C 602.84 278.14, 607.38 277.50, 612.00 277.31 C 611.40 276.58, 610.78 275.90, 610.09 275.25 C 603.30 268.74, 596.44 262.42, 589.15 256.45 C 578.12 247.29, 565.95 239.42, 553.56 232.26 C 551.93 231.43, 549.93 230.06, 548.08 230.11 C 538.15 233.28, 529.08 238.04, 519.96 243.02 Z"/>
  <path fill="rgba(54,30,17,1.000)" d="M 574.94 240.21 C 583.07 244.54, 590.46 249.98, 597.32 256.11 C 604.73 252.74, 612.54 250.83, 620.24 248.29 C 627.84 246.05, 635.32 243.43, 643.03 242.23 C 645.43 241.87, 647.82 241.52, 650.16 240.86 C 640.91 236.45, 630.96 233.28, 620.97 231.03 C 617.96 230.32, 615.13 229.54, 612.00 230.09 C 599.34 231.89, 586.73 235.25, 574.94 240.21 Z"/>
  <path fill="rgba(54,30,17,1.000)" d="M 650.68 246.43 C 648.24 246.74, 645.79 247.06, 643.35 247.40 C 650.52 251.70, 657.11 256.64, 662.92 262.67 C 664.03 263.81, 665.19 264.89, 666.35 265.97 C 673.36 264.38, 679.66 261.29, 686.06 258.14 C 678.81 253.75, 671.06 250.00, 663.24 246.71 C 659.11 244.82, 655.03 246.01, 650.68 246.43 Z"/>
  <path fill="rgba(54,30,17,1.000)" d="M 337.84 258.73 C 340.24 260.29, 343.28 260.95, 345.99 262.02 C 350.81 263.87, 355.71 265.43, 360.64 266.95 C 367.00 260.95, 372.61 254.46, 380.07 249.72 C 374.40 248.72, 368.68 247.88, 362.97 247.11 C 360.40 246.70, 357.58 248.25, 355.27 249.27 C 349.35 252.19, 343.57 255.44, 337.84 258.73 Z"/>
  <path fill="rgba(54,30,17,1.000)" d="M 493.98 261.59 C 498.32 263.61, 502.25 266.19, 506.39 268.60 C 513.53 272.83, 519.34 278.22, 525.80 283.32 C 538.19 282.88, 550.57 282.09, 562.96 281.83 C 553.98 273.17, 544.04 265.39, 533.91 258.12 C 528.00 253.80, 521.59 250.31, 515.10 246.97 C 510.87 248.45, 507.07 251.83, 503.50 254.49 C 500.44 257.02, 497.09 259.14, 493.98 261.59 Z"/>
  <path fill="rgba(54,30,17,1.000)" d="M 601.49 260.53 C 607.43 265.03, 613.28 270.61, 618.00 276.38 C 623.62 276.01, 628.96 274.57, 634.47 273.54 C 643.58 271.86, 652.72 269.94, 661.60 267.29 C 654.02 261.28, 646.31 254.11, 636.95 249.58 C 635.15 249.45, 633.24 250.23, 631.50 250.67 C 623.66 253.16, 615.87 255.24, 608.42 258.41 C 606.17 259.37, 603.88 260.03, 601.49 260.53 Z"/>
  <path fill="rgba(54,30,17,1.000)" d="M 471.06 282.30 C 477.38 282.73, 483.67 282.85, 490.00 282.88 C 499.48 282.94, 509.03 283.53, 518.50 282.95 C 509.49 276.70, 500.34 270.68, 491.21 264.60 C 484.61 270.66, 477.44 275.97, 471.06 282.30 Z"/>
  <path fill="rgba(239,196,134,1.000)" d="M 539.38 193.80 C 540.93 196.32, 542.08 198.95, 543.22 201.67 C 544.33 206.07, 545.49 210.16, 544.82 214.76 C 541.91 214.21, 539.05 213.45, 536.22 212.58 C 535.96 209.88, 535.71 207.21, 535.09 204.57 C 536.14 201.70, 535.85 200.91, 534.48 198.33 C 535.75 198.00, 537.03 197.67, 538.30 197.34 C 538.66 196.16, 539.02 194.98, 539.38 193.80 Z"/>
  <path fill="rgba(253,233,170,1.000)" d="M 521.00 201.25 C 522.93 201.29, 524.66 201.07, 526.48 201.81 C 524.61 202.61, 522.84 203.45, 520.76 203.54 C 515.04 203.89, 508.87 203.95, 503.32 205.45 C 502.68 206.22, 502.12 207.05, 501.62 207.94 C 499.69 208.14, 497.80 208.50, 495.89 208.85 C 495.92 206.02, 496.78 202.59, 500.04 202.09 C 506.97 201.29, 514.03 201.33, 521.00 201.25 Z"/>
  <path fill="rgba(253,220,146,1.000)" d="M 526.48 201.81 C 528.25 203.86, 529.22 206.24, 529.83 208.85 C 525.86 208.41, 521.99 207.69, 518.01 207.45 C 512.63 207.08, 507.02 207.62, 501.62 207.94 C 502.12 207.05, 502.68 206.22, 503.32 205.45 C 508.87 203.95, 515.04 203.89, 520.76 203.54 C 522.84 203.45, 524.61 202.61, 526.48 201.81 Z"/>
  <path fill="rgba(253,234,193,1.000)" d="M 471.36 202.47 C 470.86 204.12, 470.36 205.78, 469.87 207.43 C 459.38 207.60, 448.90 208.92, 438.48 209.99 C 437.74 210.04, 436.99 210.11, 436.25 210.18 C 427.36 211.25, 418.46 212.30, 409.62 213.64 C 407.41 210.70, 404.35 211.41, 401.42 209.55 C 409.92 208.06, 418.46 206.95, 427.04 206.07 C 441.73 204.24, 456.55 202.87, 471.36 202.47 Z"/>
  <path fill="rgba(253,223,160,1.000)" d="M 484.16 203.62 C 486.02 203.32, 487.83 203.51, 489.67 203.78 C 488.61 207.61, 488.30 211.52, 488.35 215.48 C 486.68 216.19, 484.98 216.96, 483.25 217.48 C 482.29 217.32, 481.33 217.16, 480.37 216.99 C 484.24 213.04, 482.34 208.70, 484.16 203.62 Z"/>
  <path fill="rgba(253,232,183,1.000)" d="M 551.75 202.63 C 572.25 202.79, 592.85 205.44, 613.13 208.32 C 612.42 208.78, 611.72 209.25, 611.01 209.72 C 613.39 210.10, 616.68 209.81, 618.64 211.35 C 618.66 212.22, 618.54 213.11, 618.26 214.01 C 614.86 213.41, 611.44 212.91, 608.00 212.55 C 589.75 210.56, 571.42 208.38, 553.08 207.53 C 552.57 205.92, 552.15 204.27, 551.75 202.63 Z"/>
  <path fill="rgba(253,227,184,1.000)" d="M 613.13 208.32 C 632.73 211.05, 652.60 214.43, 671.46 220.54 C 681.53 223.18, 691.20 227.49, 700.38 232.34 C 699.06 234.12, 697.89 235.94, 696.97 237.96 C 696.47 237.05, 695.96 236.14, 695.45 235.23 C 694.92 236.12, 694.39 237.01, 693.86 237.90 C 678.16 227.70, 658.68 222.11, 640.48 218.44 C 633.10 216.81, 625.71 215.29, 618.26 214.01 C 618.54 213.11, 618.66 212.22, 618.64 211.35 C 616.68 209.81, 613.39 210.10, 611.01 209.72 C 611.72 209.25, 612.42 208.78, 613.13 208.32 Z"/>
  <path fill="rgba(253,220,177,1.000)" d="M 401.42 209.55 C 404.35 211.41, 407.41 210.70, 409.62 213.64 C 403.14 214.80, 396.65 215.87, 390.18 217.06 C 390.39 216.26, 390.59 215.45, 390.79 214.65 C 388.21 214.57, 387.25 214.22, 385.20 212.50 C 390.58 211.35, 395.98 210.31, 401.42 209.55 Z"/>
  <path fill="rgba(41,24,10,1.000)" d="M 436.25 210.18 C 436.19 210.75, 436.19 210.75, 436.14 211.32 C 434.45 212.70, 432.56 213.83, 430.87 215.22 C 425.22 215.98, 419.57 216.88, 413.97 217.95 C 401.06 220.23, 387.86 221.99, 375.18 225.35 C 364.72 228.21, 354.26 231.57, 344.37 236.06 C 338.80 238.81, 331.27 242.84, 329.30 249.17 C 327.81 248.59, 326.33 248.02, 324.85 247.43 C 324.25 249.48, 323.65 251.52, 323.03 253.56 C 320.81 247.58, 324.72 242.09, 329.07 238.36 C 334.07 234.36, 340.29 231.64, 346.18 229.20 C 360.43 223.85, 375.25 219.95, 390.18 217.06 C 396.65 215.87, 403.14 214.80, 409.62 213.64 C 418.46 212.30, 427.36 211.25, 436.25 210.18 Z"/>
  <path fill="rgba(253,231,192,1.000)" d="M 385.20 212.50 C 387.25 214.22, 388.21 214.57, 390.79 214.65 C 390.59 215.45, 390.39 216.26, 390.18 217.06 C 375.25 219.95, 360.43 223.85, 346.18 229.20 C 340.29 231.64, 334.07 234.36, 329.07 238.36 C 327.57 236.17, 326.06 233.98, 324.56 231.79 C 343.73 221.89, 364.08 216.38, 385.20 212.50 Z"/>
  <path fill="rgba(252,200,115,1.000)" d="M 511.01 214.13 C 514.01 214.05, 517.04 214.74, 520.01 215.09 C 526.40 215.91, 531.67 218.40, 537.88 220.13 C 539.87 222.64, 539.88 223.48, 539.52 226.68 C 519.51 235.59, 500.92 248.06, 484.33 262.33 C 477.65 268.42, 470.61 273.94, 464.67 280.80 C 463.53 282.30, 461.61 281.65, 459.99 281.68 C 445.96 280.83, 432.00 279.30, 418.02 277.89 C 424.11 272.67, 428.99 266.31, 435.08 261.10 C 441.91 254.48, 449.11 248.34, 456.88 242.84 C 467.20 235.48, 477.01 227.64, 488.50 222.53 C 495.62 218.53, 502.83 215.21, 511.01 214.13 Z"/>
  <path fill="rgba(231,159,83,1.000)" d="M 430.87 215.22 C 431.99 215.14, 431.99 215.14, 433.11 215.07 C 427.15 217.44, 421.12 218.18, 415.02 220.05 C 405.83 222.79, 396.71 225.72, 387.49 228.39 C 377.61 232.03, 367.69 235.86, 358.13 240.31 C 353.39 238.33, 348.62 239.20, 344.37 236.06 C 354.26 231.57, 364.72 228.21, 375.18 225.35 C 387.86 221.99, 401.06 220.23, 413.97 217.95 C 419.57 216.88, 425.22 215.98, 430.87 215.22 Z"/>
  <path fill="rgba(251,189,79,1.000)" d="M 470.52 215.58 C 470.85 217.06, 471.22 218.53, 471.70 219.97 C 467.08 219.35, 462.63 217.98, 458.05 217.19 C 462.26 216.76, 466.39 216.73, 470.52 215.58 Z"/>
  <path fill="rgba(251,195,95,1.000)" d="M 551.78 215.71 C 557.24 216.44, 562.71 216.68, 568.21 217.04 C 560.92 219.17, 553.71 221.38, 546.48 223.66 C 545.68 223.13, 544.87 222.61, 544.05 222.12 C 545.02 222.33, 545.02 222.33, 545.98 222.55 C 547.46 221.82, 548.91 221.02, 550.36 220.23 C 550.83 218.72, 551.30 217.22, 551.78 215.71 Z"/>
  <path fill="rgba(228,153,78,1.000)" d="M 594.73 216.25 C 598.90 216.04, 602.87 216.73, 606.99 217.22 C 618.07 218.61, 628.97 220.84, 639.85 223.33 C 651.65 225.50, 663.22 229.07, 674.30 233.68 C 679.73 235.80, 685.39 238.41, 689.99 242.04 C 691.98 243.60, 693.43 245.69, 693.83 248.21 C 694.21 250.32, 692.13 252.11, 691.09 253.76 C 684.33 248.80, 676.81 245.41, 669.38 241.62 C 659.37 236.45, 648.99 233.54, 638.62 229.38 C 629.41 225.43, 619.57 223.07, 610.01 219.88 C 605.02 218.17, 599.72 217.88, 594.73 216.25 Z"/>
  <path fill="rgba(253,203,129,1.000)" d="M 448.04 219.99 C 455.43 221.08, 462.43 223.48, 469.82 224.64 C 470.66 224.79, 471.51 224.93, 472.35 225.08 C 467.07 229.01, 461.81 233.14, 456.07 236.36 C 443.41 232.44, 430.49 229.56, 417.54 226.79 C 422.77 225.59, 427.95 224.14, 433.09 222.63 C 437.82 221.25, 443.08 219.67, 448.04 219.99 Z"/>
  <path fill="rgba(236,199,126,1.000)" d="M 537.88 220.13 C 539.95 220.76, 542.00 221.44, 544.05 222.12 C 544.87 222.61, 545.68 223.13, 546.48 223.66 C 544.17 224.68, 541.87 225.74, 539.52 226.68 C 539.88 223.48, 539.87 222.64, 537.88 220.13 Z"/>
  <path fill="rgba(253,192,117,1.000)" d="M 582.53 220.57 C 589.79 222.11, 597.03 223.53, 604.07 225.90 C 592.90 228.88, 581.47 232.14, 570.93 236.92 C 566.01 234.06, 561.51 230.97, 556.38 228.71 C 556.33 228.05, 556.29 227.39, 556.24 226.73 C 561.31 225.81, 565.73 222.95, 570.82 221.95 C 574.52 221.28, 578.81 219.66, 582.53 220.57 Z"/>
  <path fill="rgba(253,200,118,1.000)" d="M 402.47 230.54 C 405.75 229.48, 409.72 230.79, 413.08 231.19 C 412.46 231.64, 411.84 232.09, 411.23 232.55 C 415.36 234.17, 419.59 235.34, 423.88 236.46 C 426.35 237.09, 428.30 239.45, 430.50 240.35 C 432.18 240.07, 433.61 239.92, 435.28 240.36 C 435.42 241.83, 435.43 242.86, 436.53 243.96 C 437.68 243.30, 438.82 242.64, 439.97 241.99 C 439.71 243.02, 440.19 244.94, 438.93 245.34 C 437.69 245.44, 436.42 245.35, 435.17 245.32 C 434.65 247.13, 434.35 249.04, 433.69 250.81 C 432.82 252.29, 431.48 253.52, 430.36 254.81 C 430.91 255.33, 431.46 255.86, 432.01 256.39 C 431.10 257.15, 430.15 257.86, 429.16 258.52 C 420.76 254.91, 412.14 252.13, 403.25 249.99 C 401.45 249.56, 399.66 249.09, 397.85 248.66 C 398.93 248.07, 398.93 248.07, 400.00 247.49 C 397.94 246.34, 395.93 245.13, 394.07 243.67 C 394.96 243.25, 395.86 242.84, 396.76 242.43 C 396.81 241.77, 396.86 241.11, 396.90 240.45 C 395.02 240.11, 393.15 239.69, 391.31 239.14 C 391.88 237.25, 392.43 235.36, 392.98 233.47 C 396.15 232.50, 399.28 231.42, 402.47 230.54 Z"/>
  <path fill="rgba(252,198,114,1.000)" d="M 548.08 230.11 C 549.93 230.06, 551.93 231.43, 553.56 232.26 C 553.67 233.59, 553.56 234.40, 554.72 235.29 C 561.28 240.80, 569.08 245.33, 576.61 249.38 C 581.63 252.78, 585.58 257.93, 590.10 261.95 C 592.80 264.30, 595.23 266.79, 597.12 269.86 C 597.82 270.90, 597.59 272.45, 597.63 273.66 C 594.36 273.92, 591.50 274.32, 590.17 277.63 C 592.83 278.17, 595.56 278.46, 598.26 278.70 C 590.01 279.71, 581.72 280.54, 573.42 281.07 C 568.96 278.63, 566.61 274.47, 562.71 271.33 C 557.12 266.09, 552.30 260.74, 545.34 257.13 C 544.99 258.03, 544.99 258.03, 544.64 258.93 C 536.63 253.35, 528.34 248.04, 519.96 243.02 C 529.08 238.04, 538.15 233.28, 548.08 230.11 Z"/>
  <path fill="rgba(252,197,112,1.000)" d="M 612.00 230.09 C 615.13 229.54, 617.96 230.32, 620.97 231.03 C 630.96 233.28, 640.91 236.45, 650.16 240.86 C 647.82 241.52, 645.43 241.87, 643.03 242.23 C 635.32 243.43, 627.84 246.05, 620.24 248.29 C 612.54 250.83, 604.73 252.74, 597.32 256.11 C 590.46 249.98, 583.07 244.54, 574.94 240.21 C 586.73 235.25, 599.34 231.89, 612.00 230.09 Z"/>
  <path fill="rgba(253,211,133,1.000)" d="M 413.08 231.19 C 426.39 233.12, 438.93 237.52, 451.87 240.39 C 444.23 244.58, 438.32 250.53, 432.01 256.39 C 431.46 255.86, 430.91 255.33, 430.36 254.81 C 431.48 253.52, 432.82 252.29, 433.69 250.81 C 434.35 249.04, 434.65 247.13, 435.17 245.32 C 436.42 245.35, 437.69 245.44, 438.93 245.34 C 440.19 244.94, 439.71 243.02, 439.97 241.99 C 438.82 242.64, 437.68 243.30, 436.53 243.96 C 435.43 242.86, 435.42 241.83, 435.28 240.36 C 433.61 239.92, 432.18 240.07, 430.50 240.35 C 428.30 239.45, 426.35 237.09, 423.88 236.46 C 419.59 235.34, 415.36 234.17, 411.23 232.55 C 411.84 232.09, 412.46 231.64, 413.08 231.19 Z"/>
  <path fill="rgba(250,222,174,1.000)" d="M 324.56 231.79 C 326.06 233.98, 327.57 236.17, 329.07 238.36 C 324.72 242.09, 320.81 247.58, 323.03 253.56 C 324.49 257.04, 326.89 259.73, 329.85 262.03 C 328.92 265.63, 332.66 267.77, 334.82 269.95 C 333.76 270.84, 332.76 271.76, 331.89 272.84 C 326.50 271.35, 321.81 268.95, 317.34 265.62 C 312.53 262.49, 310.01 258.12, 306.11 254.04 C 305.92 255.09, 305.92 255.09, 305.73 256.13 C 303.81 250.84, 306.40 246.66, 309.79 242.80 C 314.00 238.36, 319.04 234.47, 324.56 231.79 Z"/>
  <path fill="rgba(253,208,130,1.000)" d="M 553.56 232.26 C 565.95 239.42, 578.12 247.29, 589.15 256.45 C 589.64 260.31, 592.79 261.15, 595.17 263.80 C 597.81 266.64, 600.64 268.99, 603.72 271.33 C 606.56 273.43, 607.08 277.08, 610.94 277.14 C 610.67 276.51, 610.38 275.88, 610.09 275.25 C 610.78 275.90, 611.40 276.58, 612.00 277.31 C 607.38 277.50, 602.84 278.14, 598.26 278.70 C 595.56 278.46, 592.83 278.17, 590.17 277.63 C 591.50 274.32, 594.36 273.92, 597.63 273.66 C 597.59 272.45, 597.82 270.90, 597.12 269.86 C 595.23 266.79, 592.80 264.30, 590.10 261.95 C 585.58 257.93, 581.63 252.78, 576.61 249.38 C 569.08 245.33, 561.28 240.80, 554.72 235.29 C 553.56 234.40, 553.67 233.59, 553.56 232.26 Z"/>
  <path fill="rgba(251,215,160,1.000)" d="M 700.38 232.34 C 706.01 235.46, 711.66 239.39, 715.75 244.41 C 715.70 247.31, 716.98 250.36, 716.44 253.18 C 715.24 256.18, 713.14 258.83, 711.63 261.69 C 710.23 262.04, 708.84 262.38, 707.45 262.72 C 706.95 264.11, 706.46 265.50, 705.96 266.88 C 702.63 267.97, 699.70 270.90, 696.26 270.79 C 695.97 269.97, 695.68 269.14, 695.39 268.32 C 695.25 269.59, 695.11 270.87, 694.97 272.14 C 692.33 272.28, 689.88 273.27, 689.18 269.80 C 690.28 267.02, 693.30 265.32, 693.22 262.22 C 696.96 259.04, 700.95 255.23, 701.31 250.01 C 701.37 244.55, 698.05 240.89, 693.86 237.90 C 694.39 237.01, 694.92 236.12, 695.45 235.23 C 695.96 236.14, 696.47 237.05, 696.97 237.96 C 697.89 235.94, 699.06 234.12, 700.38 232.34 Z"/>
  <path fill="rgba(254,209,131,1.000)" d="M 392.98 233.47 C 392.43 235.36, 391.88 237.25, 391.31 239.14 C 393.15 239.69, 395.02 240.11, 396.90 240.45 C 396.86 241.11, 396.81 241.77, 396.76 242.43 C 395.86 242.84, 394.96 243.25, 394.07 243.67 C 395.93 245.13, 397.94 246.34, 400.00 247.49 C 398.93 248.07, 398.93 248.07, 397.85 248.66 C 388.55 246.64, 379.24 244.53, 369.88 242.79 C 377.18 238.70, 384.99 235.85, 392.98 233.47 Z"/>
  <path fill="rgba(219,154,72,1.000)" d="M 344.37 236.06 C 348.62 239.20, 353.39 238.33, 358.13 240.31 C 349.06 244.34, 341.16 249.04, 333.18 254.91 C 331.13 253.15, 330.01 251.83, 329.30 249.17 C 331.27 242.84, 338.80 238.81, 344.37 236.06 Z"/>
  <path fill="rgba(254,231,187,1.000)" d="M 715.75 244.41 C 718.01 247.27, 719.67 250.30, 719.18 254.08 C 717.74 259.05, 714.68 263.42, 710.38 266.35 C 702.47 271.94, 693.06 275.96, 683.98 279.24 C 664.27 285.66, 643.91 290.21, 623.39 293.07 C 598.40 297.07, 573.26 298.90, 548.00 300.16 C 516.26 301.45, 484.40 301.08, 452.71 298.73 C 454.84 298.43, 456.95 298.00, 459.06 297.52 C 456.89 296.64, 455.01 296.22, 452.67 296.42 C 448.24 296.81, 444.07 295.45, 439.65 295.53 C 437.85 295.62, 436.81 294.51, 435.35 293.67 C 434.30 294.31, 433.26 294.96, 432.22 295.60 C 431.10 294.37, 430.00 293.13, 428.92 291.86 C 429.30 291.43, 429.67 291.00, 430.05 290.58 C 433.26 290.81, 436.43 290.73, 439.64 290.57 C 441.57 290.35, 443.31 292.27, 445.12 292.88 C 449.17 292.93, 452.31 290.65, 456.01 291.93 C 457.77 292.47, 459.87 291.68, 461.68 291.51 C 465.65 290.82, 469.08 291.90, 472.50 289.65 C 486.31 290.02, 500.18 290.69, 514.00 290.53 C 531.43 290.07, 548.50 290.20, 566.00 288.77 C 582.76 287.59, 599.58 286.20, 616.18 283.59 C 629.91 281.87, 643.56 279.29, 657.00 275.99 C 669.74 273.08, 682.00 269.04, 693.22 262.22 C 693.30 265.32, 690.28 267.02, 689.18 269.80 C 689.88 273.27, 692.33 272.28, 694.97 272.14 C 695.11 270.87, 695.25 269.59, 695.39 268.32 C 695.68 269.14, 695.97 269.97, 696.26 270.79 C 699.70 270.90, 702.63 267.97, 705.96 266.88 C 706.46 265.50, 706.95 264.11, 707.45 262.72 C 708.84 262.38, 710.23 262.04, 711.63 261.69 C 713.14 258.83, 715.24 256.18, 716.44 253.18 C 716.98 250.36, 715.70 247.31, 715.75 244.41 Z"/>
  <path fill="rgba(254,200,111,1.000)" d="M 663.24 246.71 C 671.06 250.00, 678.81 253.75, 686.06 258.14 C 679.66 261.29, 673.36 264.38, 666.35 265.97 C 665.19 264.89, 664.03 263.81, 662.92 262.67 C 662.52 255.69, 651.98 252.71, 650.68 246.43 C 655.03 246.01, 659.11 244.82, 663.24 246.71 Z"/>
  <path fill="rgba(252,199,117,1.000)" d="M 362.97 247.11 C 368.68 247.88, 374.40 248.72, 380.07 249.72 C 372.61 254.46, 367.00 260.95, 360.64 266.95 C 355.71 265.43, 350.81 263.87, 345.99 262.02 C 343.28 260.95, 340.24 260.29, 337.84 258.73 C 343.57 255.44, 349.35 252.19, 355.27 249.27 C 357.58 248.25, 360.40 246.70, 362.97 247.11 Z"/>
  <path fill="rgba(253,201,117,1.000)" d="M 515.10 246.97 C 521.59 250.31, 528.00 253.80, 533.91 258.12 C 544.04 265.39, 553.98 273.17, 562.96 281.83 C 550.57 282.09, 538.19 282.88, 525.80 283.32 C 519.34 278.22, 513.53 272.83, 506.39 268.60 C 502.25 266.19, 498.32 263.61, 493.98 261.59 C 497.09 259.14, 500.44 257.02, 503.50 254.49 C 507.07 251.83, 510.87 248.45, 515.10 246.97 Z"/>
  <path fill="rgba(253,217,127,1.000)" d="M 643.35 247.40 C 645.79 247.06, 648.24 246.74, 650.68 246.43 C 651.98 252.71, 662.52 255.69, 662.92 262.67 C 657.11 256.64, 650.52 251.70, 643.35 247.40 Z"/>
  <path fill="rgba(69,35,17,1.000)" d="M 403.25 249.99 C 412.14 252.13, 420.76 254.91, 429.16 258.52 C 427.34 259.68, 425.48 260.80, 423.66 261.97 C 415.04 259.92, 406.67 256.86, 398.04 254.80 C 399.45 252.52, 400.58 250.91, 403.25 249.99 Z"/>
  <path fill="rgba(254,201,115,1.000)" d="M 631.50 250.67 C 633.24 250.23, 635.15 249.45, 636.95 249.58 C 646.31 254.11, 654.02 261.28, 661.60 267.29 C 652.72 269.94, 643.58 271.86, 634.47 273.54 C 628.96 274.57, 623.62 276.01, 618.00 276.38 C 613.28 270.61, 607.43 265.03, 601.49 260.53 C 603.88 260.03, 606.17 259.37, 608.42 258.41 C 615.87 255.24, 623.66 253.16, 631.50 250.67 Z"/>
  <path fill="rgba(252,200,122,1.000)" d="M 386.97 252.01 C 390.72 252.52, 394.36 253.90, 398.04 254.80 C 406.67 256.86, 415.04 259.92, 423.66 261.97 C 424.36 262.11, 424.36 262.11, 425.07 262.25 C 420.87 267.43, 415.73 271.63, 411.87 277.13 C 402.96 274.93, 393.97 274.05, 384.98 272.24 C 378.42 271.08, 371.97 269.44, 365.44 268.16 C 369.82 264.30, 374.26 260.50, 378.69 256.69 C 381.00 254.87, 383.92 252.23, 386.97 252.01 Z"/>
  <path fill="rgba(254,232,195,1.000)" d="M 306.11 254.04 C 310.01 258.12, 312.53 262.49, 317.34 265.62 C 321.81 268.95, 326.50 271.35, 331.89 272.84 C 332.76 271.76, 333.76 270.84, 334.82 269.95 C 332.66 267.77, 328.92 265.63, 329.85 262.03 C 337.52 267.27, 347.21 270.13, 355.98 273.01 C 364.84 276.01, 373.65 277.66, 382.80 279.65 C 412.48 285.40, 442.34 288.14, 472.50 289.65 C 469.08 291.90, 465.65 290.82, 461.68 291.51 C 459.87 291.68, 457.77 292.47, 456.01 291.93 C 452.31 290.65, 449.17 292.93, 445.12 292.88 C 443.31 292.27, 441.57 290.35, 439.64 290.57 C 436.43 290.73, 433.26 290.81, 430.05 290.58 C 429.67 291.00, 429.30 291.43, 428.92 291.86 C 430.00 293.13, 431.10 294.37, 432.22 295.60 C 433.26 294.96, 434.30 294.31, 435.35 293.67 C 436.81 294.51, 437.85 295.62, 439.65 295.53 C 444.07 295.45, 448.24 296.81, 452.67 296.42 C 455.01 296.22, 456.89 296.64, 459.06 297.52 C 456.95 298.00, 454.84 298.43, 452.71 298.73 C 424.24 296.88, 395.92 292.65, 367.98 286.93 C 351.56 283.05, 333.93 278.21, 319.20 269.81 C 313.58 266.49, 307.59 262.83, 305.73 256.13 C 305.92 255.09, 305.92 255.09, 306.11 254.04 Z"/>
  <path fill="rgba(245,205,132,1.000)" d="M 545.34 257.13 C 552.30 260.74, 557.12 266.09, 562.71 271.33 C 566.61 274.47, 568.96 278.63, 573.42 281.07 C 572.01 281.09, 570.60 281.10, 569.19 281.09 C 561.86 272.71, 553.54 265.58, 544.64 258.93 C 544.99 258.03, 544.99 258.03, 545.34 257.13 Z"/>
  <path fill="rgba(240,213,152,1.000)" d="M 589.15 256.45 C 596.44 262.42, 603.30 268.74, 610.09 275.25 C 610.38 275.88, 610.67 276.51, 610.94 277.14 C 607.08 277.08, 606.56 273.43, 603.72 271.33 C 600.64 268.99, 597.81 266.64, 595.17 263.80 C 592.79 261.15, 589.64 260.31, 589.15 256.45 Z"/>
  <path fill="rgba(253,204,124,1.000)" d="M 491.21 264.60 C 500.34 270.68, 509.49 276.70, 518.50 282.95 C 509.03 283.53, 499.48 282.94, 490.00 282.88 C 483.67 282.85, 477.38 282.73, 471.06 282.30 C 477.44 275.97, 484.61 270.66, 491.21 264.60 Z"/>
  <path fill="rgba(251,201,120,1.000)" d="M 304.28 269.78 C 307.71 273.30, 311.88 275.50, 316.16 277.79 C 321.78 280.71, 327.48 283.43, 333.46 285.53 C 350.73 291.70, 368.98 295.68, 387.01 299.10 C 397.29 300.72, 407.66 301.91, 417.99 303.22 C 454.04 307.87, 490.68 308.94, 527.00 308.43 C 546.01 308.34, 565.04 307.13, 583.99 305.76 C 600.49 304.51, 616.75 301.78, 633.14 299.67 C 647.85 297.19, 662.55 294.00, 676.84 289.71 C 677.92 290.01, 677.92 290.01, 678.99 290.32 C 676.77 291.39, 674.43 292.22, 672.24 293.36 C 670.39 295.87, 673.34 298.48, 674.60 300.56 C 673.59 301.48, 672.58 302.39, 671.58 303.32 C 673.32 304.11, 675.15 304.26, 677.02 304.49 C 677.76 305.44, 678.51 306.39, 679.25 307.35 C 670.34 310.34, 661.21 312.39, 652.12 314.74 C 641.09 316.99, 630.22 319.65, 619.01 320.88 C 594.36 325.12, 569.73 326.36, 544.85 328.04 C 544.80 329.30, 544.79 330.57, 544.83 331.84 C 549.93 332.47, 554.89 331.77, 560.00 331.81 C 570.85 331.74, 581.63 330.83, 592.39 329.47 C 601.87 328.31, 611.58 327.43, 621.00 325.80 C 632.85 323.88, 644.58 322.45, 656.19 319.28 C 666.58 317.05, 676.84 314.23, 686.87 310.72 C 687.80 310.96, 687.80 310.96, 688.73 311.19 C 688.34 311.96, 687.95 312.72, 687.55 313.49 C 686.33 313.49, 685.10 313.49, 683.87 313.49 C 684.29 314.99, 684.71 316.48, 685.13 317.97 C 686.46 317.86, 687.79 317.75, 689.13 317.66 C 690.35 319.40, 691.29 320.20, 693.20 321.14 C 673.87 328.54, 653.21 333.17, 632.88 336.88 C 613.08 340.88, 593.10 342.36, 573.00 343.90 C 566.01 344.61, 559.00 344.55, 552.00 344.95 C 544.97 345.48, 537.93 345.48, 530.88 345.69 C 515.25 345.70, 499.63 345.94, 484.00 345.53 C 475.49 345.73, 467.09 344.61, 458.60 344.52 C 446.51 344.17, 434.36 341.87, 422.28 342.38 C 422.26 343.42, 422.25 344.46, 422.25 345.50 C 435.17 348.28, 447.97 348.55, 461.02 350.12 C 468.29 350.87, 475.70 350.59, 483.00 350.92 C 492.32 351.38, 501.67 351.28, 511.00 351.35 C 520.75 351.44, 530.59 351.40, 540.30 350.66 C 549.92 350.88, 559.57 350.22, 569.17 349.67 C 580.86 349.37, 592.32 347.17, 603.99 346.37 C 614.41 345.11, 625.00 343.90, 635.21 341.44 C 636.78 341.12, 638.34 340.79, 639.92 340.52 C 643.61 341.36, 645.20 344.03, 647.46 346.72 C 647.82 345.82, 648.17 344.92, 648.53 344.02 C 649.67 345.51, 650.63 347.69, 652.16 348.74 C 653.70 348.80, 655.27 348.67, 656.81 348.58 C 658.18 349.66, 659.54 350.75, 660.91 351.83 C 661.47 350.24, 662.02 348.65, 662.56 347.05 C 663.42 348.37, 664.28 349.69, 665.14 351.01 C 665.32 350.45, 665.50 349.89, 665.67 349.33 C 667.44 349.29, 669.20 349.29, 670.97 349.30 C 670.04 350.36, 669.10 351.42, 668.16 352.48 C 642.87 359.20, 617.04 363.41, 590.97 365.57 C 581.31 366.37, 571.69 367.81, 562.01 368.27 C 545.71 369.17, 529.32 369.93, 513.00 369.82 C 491.20 370.00, 469.25 368.63, 447.50 367.22 C 416.64 364.50, 386.24 360.38, 356.20 352.62 C 350.75 351.14, 345.46 349.10, 340.09 347.38 C 337.61 344.19, 333.75 342.05, 330.55 339.59 C 327.28 336.80, 323.29 338.39, 320.18 335.30 C 320.77 334.24, 321.36 333.19, 321.95 332.13 C 320.68 332.57, 319.42 333.01, 318.16 333.46 C 316.38 332.29, 314.71 330.89, 312.86 329.84 C 309.79 330.53, 307.59 329.74, 307.16 326.30 C 308.36 325.61, 309.55 324.91, 310.75 324.21 C 308.36 321.38, 309.54 318.88, 310.08 315.68 C 315.51 318.37, 320.96 320.97, 326.67 323.01 C 342.99 329.88, 359.65 333.59, 376.90 337.30 C 379.58 337.94, 382.29 338.17, 385.04 338.20 C 385.38 337.45, 385.69 336.70, 385.99 335.93 C 386.12 333.95, 384.26 333.84, 382.85 333.21 C 377.74 331.63, 372.35 330.90, 367.13 329.70 C 356.11 327.35, 345.24 324.46, 334.48 321.14 C 326.14 318.06, 317.94 314.53, 310.14 310.26 C 313.68 309.80, 311.32 306.45, 310.63 304.48 C 311.38 304.15, 312.14 303.81, 312.89 303.48 C 312.75 302.24, 312.60 301.01, 312.46 299.77 C 318.98 302.70, 325.10 305.93, 331.98 308.00 C 339.36 310.28, 346.77 312.52, 354.17 314.75 C 367.59 318.40, 381.24 321.08, 395.01 323.04 C 401.88 324.01, 409.10 325.80, 416.04 325.46 C 417.78 325.49, 418.27 323.47, 418.94 322.22 C 414.14 319.36, 407.83 319.42, 402.31 318.54 C 372.89 314.54, 342.77 307.62, 315.62 295.38 C 311.58 293.85, 309.51 290.14, 304.92 291.65 C 304.59 284.39, 305.34 276.97, 304.28 269.78 Z"/>
  <path fill="rgba(44,24,14,1.000)" d="M 716.99 271.00 C 711.96 275.82, 705.09 278.90, 698.78 281.76 C 691.62 284.77, 684.16 287.11, 676.84 289.71 C 662.55 294.00, 647.85 297.19, 633.14 299.67 C 632.67 298.96, 632.67 298.96, 632.20 298.26 C 633.75 298.06, 635.29 297.88, 636.84 297.69 C 636.53 296.37, 637.10 294.04, 635.41 293.62 C 632.18 292.49, 627.95 294.54, 624.58 294.36 C 623.98 293.71, 623.98 293.71, 623.39 293.07 C 643.91 290.21, 664.27 285.66, 683.98 279.24 C 684.28 279.96, 684.59 280.68, 684.89 281.40 C 682.06 282.80, 679.09 283.15, 675.98 283.45 C 676.75 284.21, 677.49 284.97, 678.31 285.67 C 684.68 284.89, 691.63 281.48, 697.63 279.45 C 700.63 278.22, 703.20 276.25, 706.32 275.23 C 708.72 274.43, 710.25 272.69, 712.26 271.28 C 713.68 270.29, 715.41 270.87, 716.99 271.00 Z"/>
  <path fill="rgba(252,190,104,1.000)" d="M 719.51 268.81 C 719.57 276.10, 719.53 283.38, 719.46 290.67 C 714.98 291.79, 711.47 294.48, 707.32 296.33 C 698.07 300.40, 689.00 304.57, 679.25 307.35 C 678.51 306.39, 677.76 305.44, 677.02 304.49 C 675.15 304.26, 673.32 304.11, 671.58 303.32 C 672.58 302.39, 673.59 301.48, 674.60 300.56 C 673.34 298.48, 670.39 295.87, 672.24 293.36 C 674.43 292.22, 676.77 291.39, 678.99 290.32 C 677.92 290.01, 677.92 290.01, 676.84 289.71 C 684.16 287.11, 691.62 284.77, 698.78 281.76 C 705.09 278.90, 711.96 275.82, 716.99 271.00 C 717.83 270.27, 718.67 269.54, 719.51 268.81 Z"/>
  <path fill="rgba(236,162,63,1.000)" d="M 315.62 295.38 C 342.77 307.62, 372.89 314.54, 402.31 318.54 C 407.83 319.42, 414.14 319.36, 418.94 322.22 C 418.27 323.47, 417.78 325.49, 416.04 325.46 C 409.10 325.80, 401.88 324.01, 395.01 323.04 C 381.24 321.08, 367.59 318.40, 354.17 314.75 C 346.77 312.52, 339.36 310.28, 331.98 308.00 C 325.10 305.93, 318.98 302.70, 312.46 299.77 C 309.61 298.49, 307.20 296.81, 304.90 294.72 C 304.91 293.70, 304.91 292.67, 304.92 291.65 C 309.51 290.14, 311.58 293.85, 315.62 295.38 Z"/>
  <path fill="rgba(233,151,56,1.000)" d="M 719.46 290.67 C 719.49 291.66, 719.53 292.66, 719.57 293.65 C 716.94 295.91, 714.29 298.61, 711.24 300.23 C 703.33 304.29, 695.32 307.91, 686.87 310.72 C 676.84 314.23, 666.58 317.05, 656.19 319.28 C 654.59 319.19, 652.99 319.05, 651.39 318.91 C 651.82 318.25, 652.26 317.59, 652.70 316.93 C 652.50 316.20, 652.31 315.47, 652.12 314.74 C 661.21 312.39, 670.34 310.34, 679.25 307.35 C 689.00 304.57, 698.07 300.40, 707.32 296.33 C 711.47 294.48, 714.98 291.79, 719.46 290.67 Z"/>
  <path fill="rgba(251,190,104,1.000)" d="M 719.57 293.65 C 719.79 299.11, 719.69 304.55, 719.49 310.01 C 719.29 315.64, 719.88 321.44, 719.27 327.04 C 719.08 328.33, 718.13 329.34, 717.28 330.27 C 711.42 335.77, 704.71 339.17, 697.50 342.53 C 688.07 346.72, 678.18 350.01, 668.16 352.48 C 669.10 351.42, 670.04 350.36, 670.97 349.30 C 669.20 349.29, 667.44 349.29, 665.67 349.33 C 665.50 349.89, 665.32 350.45, 665.14 351.01 C 664.28 349.69, 663.42 348.37, 662.56 347.05 C 662.02 348.65, 661.47 350.24, 660.91 351.83 C 659.54 350.75, 658.18 349.66, 656.81 348.58 C 655.27 348.67, 653.70 348.80, 652.16 348.74 C 650.63 347.69, 649.67 345.51, 648.53 344.02 C 648.17 344.92, 647.82 345.82, 647.46 346.72 C 645.20 344.03, 643.61 341.36, 639.92 340.52 C 664.92 336.19, 689.76 329.96, 712.55 318.56 C 715.92 316.67, 718.96 313.86, 718.20 309.59 C 714.70 310.75, 711.93 313.07, 708.54 314.52 C 703.45 316.78, 698.39 319.14, 693.20 321.14 C 691.29 320.20, 690.35 319.40, 689.13 317.66 C 687.79 317.75, 686.46 317.86, 685.13 317.97 C 684.71 316.48, 684.29 314.99, 683.87 313.49 C 685.10 313.49, 686.33 313.49, 687.55 313.49 C 687.95 312.72, 688.34 311.96, 688.73 311.19 C 687.80 310.96, 687.80 310.96, 686.87 310.72 C 695.32 307.91, 703.33 304.29, 711.24 300.23 C 714.29 298.61, 716.94 295.91, 719.57 293.65 Z"/>
  <path fill="rgba(253,210,143,1.000)" d="M 304.90 294.72 C 307.20 296.81, 309.61 298.49, 312.46 299.77 C 312.60 301.01, 312.75 302.24, 312.89 303.48 C 312.14 303.81, 311.38 304.15, 310.63 304.48 C 311.32 306.45, 313.68 309.80, 310.14 310.26 C 309.38 309.87, 309.38 309.87, 308.62 309.49 C 307.61 309.08, 306.60 308.69, 305.58 308.32 C 305.85 310.04, 306.15 311.76, 306.50 313.46 C 307.68 314.22, 308.86 314.98, 310.08 315.68 C 309.54 318.88, 308.36 321.38, 310.75 324.21 C 309.55 324.91, 308.36 325.61, 307.16 326.30 C 307.59 329.74, 309.79 330.53, 312.86 329.84 C 314.71 330.89, 316.38 332.29, 318.16 333.46 C 319.42 333.01, 320.68 332.57, 321.95 332.13 C 321.36 333.19, 320.77 334.24, 320.18 335.30 C 323.29 338.39, 327.28 336.80, 330.55 339.59 C 333.75 342.05, 337.61 344.19, 340.09 347.38 C 332.80 345.18, 326.04 342.07, 319.20 338.79 C 314.71 336.62, 310.14 333.95, 306.55 330.44 C 304.38 328.48, 305.25 324.67, 305.05 322.00 C 305.28 312.89, 304.81 303.82, 304.90 294.72 Z"/>
  <path fill="rgba(232,156,54,1.000)" d="M 305.58 308.32 C 306.60 308.69, 307.61 309.08, 308.62 309.49 C 309.38 309.87, 309.38 309.87, 310.14 310.26 C 317.94 314.53, 326.14 318.06, 334.48 321.14 C 331.61 321.23, 329.26 321.73, 326.67 323.01 C 320.96 320.97, 315.51 318.37, 310.08 315.68 C 308.86 314.98, 307.68 314.22, 306.50 313.46 C 306.15 311.76, 305.85 310.04, 305.58 308.32 Z"/>
  <path fill="rgba(233,149,54,1.000)" d="M 718.20 309.59 C 718.96 313.86, 715.92 316.67, 712.55 318.56 C 689.76 329.96, 664.92 336.19, 639.92 340.52 C 638.34 340.79, 636.78 341.12, 635.21 341.44 C 634.18 341.24, 633.16 341.03, 632.13 340.82 C 633.12 340.21, 634.10 339.61, 635.09 339.00 C 634.36 338.28, 633.62 337.58, 632.88 336.88 C 653.21 333.17, 673.87 328.54, 693.20 321.14 C 698.39 319.14, 703.45 316.78, 708.54 314.52 C 711.93 313.07, 714.70 310.75, 718.20 309.59 Z"/>
  <path fill="rgba(234,159,62,1.000)" d="M 652.12 314.74 C 652.31 315.47, 652.50 316.20, 652.70 316.93 C 652.26 317.59, 651.82 318.25, 651.39 318.91 C 652.99 319.05, 654.59 319.19, 656.19 319.28 C 644.58 322.45, 632.85 323.88, 621.00 325.80 C 611.58 327.43, 601.87 328.31, 592.39 329.47 C 581.63 330.83, 570.85 331.74, 560.00 331.81 C 554.89 331.77, 549.93 332.47, 544.83 331.84 C 544.79 330.57, 544.80 329.30, 544.85 328.04 C 569.73 326.36, 594.36 325.12, 619.01 320.88 C 630.22 319.65, 641.09 316.99, 652.12 314.74 Z"/>
  <path fill="rgba(238,162,64,1.000)" d="M 334.48 321.14 C 345.24 324.46, 356.11 327.35, 367.13 329.70 C 372.35 330.90, 377.74 331.63, 382.85 333.21 C 384.26 333.84, 386.12 333.95, 385.99 335.93 C 385.69 336.70, 385.38 337.45, 385.04 338.20 C 382.29 338.17, 379.58 337.94, 376.90 337.30 C 359.65 333.59, 342.99 329.88, 326.67 323.01 C 329.26 321.73, 331.61 321.23, 334.48 321.14 Z"/>
  <path fill="rgba(233,157,64,1.000)" d="M 632.88 336.88 C 633.62 337.58, 634.36 338.28, 635.09 339.00 C 634.10 339.61, 633.12 340.21, 632.13 340.82 C 633.16 341.03, 634.18 341.24, 635.21 341.44 C 625.00 343.90, 614.41 345.11, 603.99 346.37 C 592.32 347.17, 580.86 349.37, 569.17 349.67 C 559.57 350.22, 549.92 350.88, 540.30 350.66 C 538.17 350.36, 536.05 350.00, 533.92 349.67 C 532.93 348.33, 531.91 347.01, 530.88 345.69 C 537.93 345.48, 544.97 345.48, 552.00 344.95 C 559.00 344.55, 566.01 344.61, 573.00 343.90 C 593.10 342.36, 613.08 340.88, 632.88 336.88 Z"/>
  <path fill="rgba(252,207,190,1.000)" d="M 300.07 338.06 C 302.57 339.02, 304.76 341.45, 307.10 342.87 C 319.27 351.09, 333.52 356.52, 347.47 360.90 C 347.35 362.35, 347.33 363.63, 346.51 364.89 C 345.07 362.81, 343.97 361.19, 341.32 360.68 C 338.79 359.64, 336.73 361.18, 335.64 363.39 C 335.24 365.72, 335.21 368.11, 335.00 370.46 C 334.02 371.36, 333.11 372.28, 332.47 373.46 C 328.15 381.18, 325.41 389.59, 321.42 397.42 C 317.87 404.28, 313.93 411.90, 308.36 417.34 C 300.94 423.92, 289.19 425.14, 279.81 423.17 C 268.11 420.81, 255.95 416.73, 246.09 409.86 C 241.26 406.38, 237.41 401.24, 238.84 394.96 C 241.29 384.54, 248.92 374.80, 255.88 366.89 C 261.34 361.39, 266.92 355.68, 273.35 351.30 C 281.22 345.52, 290.46 340.13, 300.07 338.06 Z"/>
  <path fill="rgba(251,205,188,1.000)" d="M 723.95 338.43 C 726.67 338.90, 729.38 339.98, 731.92 341.06 C 747.03 348.01, 760.66 357.90, 771.16 370.87 C 776.36 377.26, 782.27 384.40, 784.53 392.45 C 785.60 396.33, 785.27 399.80, 783.27 403.30 C 780.18 409.24, 773.87 412.30, 768.14 415.14 C 762.29 418.16, 756.09 420.00, 749.79 421.82 C 742.31 423.89, 734.15 425.16, 726.48 423.41 C 719.13 421.66, 713.60 416.63, 709.61 410.39 C 703.17 400.44, 698.46 389.17, 693.64 378.36 C 692.12 375.46, 690.83 372.15, 687.83 370.48 C 687.47 366.29, 687.45 362.11, 686.79 357.95 C 697.56 353.60, 708.55 348.57, 718.19 342.03 C 720.07 340.88, 721.84 339.09, 723.95 338.43 Z"/>
  <path fill="rgba(238,163,66,1.000)" d="M 422.28 342.38 C 434.36 341.87, 446.51 344.17, 458.60 344.52 C 467.09 344.61, 475.49 345.73, 484.00 345.53 C 499.63 345.94, 515.25 345.70, 530.88 345.69 C 531.91 347.01, 532.93 348.33, 533.92 349.67 C 536.05 350.00, 538.17 350.36, 540.30 350.66 C 530.59 351.40, 520.75 351.44, 511.00 351.35 C 501.67 351.28, 492.32 351.38, 483.00 350.92 C 475.70 350.59, 468.29 350.87, 461.02 350.12 C 447.97 348.55, 435.17 348.28, 422.25 345.50 C 422.25 344.46, 422.26 343.42, 422.28 342.38 Z"/>
  <path fill="rgba(254,187,147,1.000)" d="M 686.79 357.95 C 687.45 362.11, 687.47 366.29, 687.83 370.48 C 685.47 370.83, 685.54 372.09, 685.02 374.05 C 682.34 370.14, 678.78 367.01, 676.16 363.05 C 676.39 362.43, 676.63 361.80, 676.86 361.18 C 680.17 360.11, 683.52 359.15, 686.79 357.95 Z"/>
  <path fill="rgba(248,199,162,1.000)" d="M 341.32 360.68 C 343.97 361.19, 345.07 362.81, 346.51 364.89 C 344.42 367.94, 341.93 370.64, 339.66 373.53 C 338.93 375.30, 338.62 377.26, 338.15 379.11 C 338.73 376.45, 339.37 369.93, 335.00 370.46 C 335.21 368.11, 335.24 365.72, 335.64 363.39 C 336.73 361.18, 338.79 359.64, 341.32 360.68 Z"/>
  <path fill="rgba(250,236,212,1.000)" d="M 347.47 360.90 C 356.00 363.75, 364.70 365.58, 373.48 367.44 C 391.14 371.84, 408.94 373.92, 426.97 376.03 C 445.59 377.87, 464.29 379.13, 483.00 379.50 C 502.64 380.28, 522.35 379.61, 542.00 379.58 C 565.06 378.90, 588.11 376.81, 611.00 373.97 C 633.20 371.40, 655.36 367.32, 676.86 361.18 C 676.63 361.80, 676.39 362.43, 676.16 363.05 C 678.78 367.01, 682.34 370.14, 685.02 374.05 C 686.17 383.00, 689.59 391.81, 692.92 400.15 C 695.84 407.90, 700.27 415.11, 705.32 421.64 C 710.85 428.25, 719.19 434.14, 727.99 434.85 C 737.54 435.82, 747.73 434.80, 756.59 430.91 C 760.36 436.35, 763.79 442.12, 766.81 448.01 C 770.00 454.43, 773.36 460.63, 775.50 467.52 C 786.46 498.33, 788.82 533.18, 779.76 564.77 C 777.81 571.25, 775.30 577.56, 772.87 583.87 C 761.84 609.27, 741.61 628.92, 718.42 643.43 C 701.32 653.95, 683.06 660.06, 664.01 666.00 C 640.60 672.66, 616.17 676.73, 592.01 679.53 C 576.06 681.57, 560.05 682.32, 544.01 683.15 C 527.47 684.29, 510.56 684.08, 494.00 683.90 C 474.36 683.06, 454.52 682.30, 435.01 679.91 C 415.21 677.66, 395.33 674.76, 375.96 670.04 C 356.51 665.66, 337.69 659.80, 319.58 651.41 C 307.21 645.43, 295.35 638.08, 284.94 629.09 C 269.93 616.70, 257.00 600.77, 249.35 582.78 C 240.93 565.11, 238.01 545.42, 237.52 526.00 C 237.73 509.64, 240.03 493.23, 244.49 477.48 C 247.85 467.54, 251.70 457.70, 256.24 448.24 C 259.08 442.27, 262.76 436.88, 265.97 431.13 C 279.48 435.53, 293.55 437.31, 306.71 430.73 C 318.22 424.50, 324.34 414.02, 329.68 402.53 C 332.87 394.89, 335.89 387.08, 338.15 379.11 C 338.62 377.26, 338.93 375.30, 339.66 373.53 C 341.93 370.64, 344.42 367.94, 346.51 364.89 C 347.33 363.63, 347.35 362.35, 347.47 360.90 Z"/>
  <path fill="rgba(250,236,212,1.000)" d="M 373.14 417.05 C 374.36 416.67, 375.54 416.42, 376.52 415.54 C 383.76 409.42, 389.97 402.33, 397.40 396.38 C 400.55 393.62, 404.18 391.07, 406.80 387.79 C 407.55 386.02, 404.89 383.54, 403.02 384.07 C 398.97 384.74, 395.08 387.38, 391.98 389.97 C 384.76 396.16, 378.30 402.50, 374.30 411.29 C 373.42 413.13, 373.30 415.05, 373.14 417.05 Z"/>
  <path fill="rgba(250,236,212,1.000)" d="M 650.76 415.84 C 650.62 413.91, 650.66 412.11, 649.61 410.39 C 643.56 399.32, 633.62 390.13, 622.21 384.77 C 620.21 383.55, 616.40 384.40, 616.11 386.95 C 617.40 389.13, 619.45 390.97, 621.29 392.69 C 627.80 398.20, 634.40 403.52, 640.48 409.53 C 643.57 412.11, 646.41 415.80, 650.76 415.84 Z"/>
  <path fill="rgba(250,236,212,1.000)" d="M 434.33 432.82 C 435.63 432.60, 436.69 432.76, 437.58 431.61 C 439.85 429.21, 441.57 426.10, 443.25 423.28 C 448.31 414.56, 453.56 406.08, 458.05 397.04 C 458.91 395.20, 459.75 393.14, 459.77 391.08 C 459.70 389.22, 458.12 387.55, 456.16 388.22 C 451.66 389.73, 448.11 394.62, 445.18 398.18 C 439.27 406.19, 433.90 415.97, 432.81 426.00 C 432.36 428.56, 433.50 430.50, 434.33 432.82 Z"/>
  <path fill="rgba(250,236,212,1.000)" d="M 566.89 388.23 C 564.65 389.84, 564.16 392.23, 565.31 394.71 C 567.79 400.40, 571.99 405.43, 575.38 410.63 C 579.50 416.35, 582.53 422.69, 586.68 428.37 C 588.03 430.09, 589.30 431.76, 591.71 431.68 C 594.62 430.39, 593.65 426.24, 593.35 423.76 C 591.23 414.68, 585.99 406.07, 580.01 399.00 C 576.06 394.63, 572.70 390.18, 566.89 388.23 Z"/>
  <path fill="rgba(250,236,212,1.000)" d="M 515.04 434.78 C 516.94 432.76, 518.31 430.71, 518.75 427.92 C 520.21 420.19, 519.25 411.76, 518.28 404.01 C 517.73 400.15, 516.97 395.55, 514.66 392.32 C 513.82 391.02, 511.92 390.59, 511.08 392.09 C 508.84 396.06, 508.85 401.56, 508.61 406.00 C 508.40 414.30, 507.85 423.72, 511.66 431.36 C 512.43 433.03, 513.44 433.91, 515.04 434.78 Z"/>
  <path fill="rgba(250,236,212,1.000)" d="M 380.93 516.44 C 373.63 515.24, 366.63 514.46, 359.32 516.33 C 354.61 517.63, 349.19 519.17, 345.43 522.40 C 341.17 525.87, 337.36 530.40, 335.61 535.66 C 333.12 542.94, 334.81 551.47, 339.55 557.47 C 343.55 562.46, 348.86 566.88, 354.91 569.12 C 364.00 572.18, 373.85 572.55, 383.18 570.36 C 394.79 567.67, 403.74 555.89, 403.18 543.98 C 402.96 540.00, 400.75 536.97, 398.99 533.50 C 406.34 535.55, 414.35 534.81, 421.01 531.02 C 425.76 528.37, 429.62 524.01, 432.33 519.35 C 435.44 513.18, 436.49 505.73, 435.10 498.96 C 434.16 494.79, 432.14 490.82, 429.69 487.34 C 424.38 480.10, 414.85 476.24, 406.00 476.89 C 399.77 477.22, 393.86 480.11, 389.33 484.32 C 380.47 491.78, 377.13 505.64, 380.93 516.44 Z"/>
  <path fill="rgba(250,236,212,1.000)" d="M 598.68 482.51 C 593.00 486.39, 589.95 491.61, 588.23 498.18 C 586.61 506.10, 586.95 515.33, 591.96 522.03 C 594.96 525.91, 598.75 529.67, 603.23 531.79 C 609.56 534.97, 617.06 535.28, 623.88 533.69 C 621.67 537.31, 619.54 540.56, 619.39 544.96 C 618.40 554.06, 625.23 562.90, 632.83 567.13 C 645.87 573.31, 662.23 573.43, 674.68 565.69 C 680.29 562.22, 684.86 557.25, 687.11 550.98 C 689.76 543.67, 688.80 535.17, 684.21 528.84 C 678.28 521.10, 669.49 516.14, 659.72 515.39 C 653.49 514.46, 647.89 516.08, 641.81 516.97 C 646.15 504.87, 642.57 489.77, 631.90 482.13 C 622.18 475.02, 608.15 474.82, 598.68 482.51 Z"/>
  <path fill="rgba(250,236,212,1.000)" d="M 496.01 487.67 C 484.50 489.13, 473.43 492.97, 464.29 500.28 C 455.37 507.32, 447.83 516.79, 445.19 528.03 C 443.34 536.80, 444.13 546.63, 448.33 554.65 C 452.46 562.31, 458.60 568.78, 466.61 572.38 C 475.40 576.71, 484.55 577.46, 494.21 577.73 C 505.80 577.94, 517.40 577.96, 529.00 577.79 C 540.06 577.56, 550.62 576.06, 560.25 570.23 C 568.28 565.61, 574.11 557.81, 577.26 549.19 C 581.84 536.08, 577.25 520.71, 568.85 510.13 C 564.45 505.27, 559.88 500.01, 554.12 496.87 C 536.95 486.95, 515.34 484.74, 496.01 487.67 Z"/>
  <path fill="rgba(239,198,141,1.000)" d="M 403.02 384.07 C 404.89 383.54, 407.55 386.02, 406.80 387.79 C 404.18 391.07, 400.55 393.62, 397.40 396.38 C 389.97 402.33, 383.76 409.42, 376.52 415.54 C 375.54 416.42, 374.36 416.67, 373.14 417.05 C 373.30 415.05, 373.42 413.13, 374.30 411.29 C 378.30 402.50, 384.76 396.16, 391.98 389.97 C 395.08 387.38, 398.97 384.74, 403.02 384.07 Z"/>
  <path fill="rgba(237,198,141,1.000)" d="M 622.21 384.77 C 633.62 390.13, 643.56 399.32, 649.61 410.39 C 650.66 412.11, 650.62 413.91, 650.76 415.84 C 646.41 415.80, 643.57 412.11, 640.48 409.53 C 634.40 403.52, 627.80 398.20, 621.29 392.69 C 619.45 390.97, 617.40 389.13, 616.11 386.95 C 616.40 384.40, 620.21 383.55, 622.21 384.77 Z"/>
  <path fill="rgba(240,200,143,1.000)" d="M 456.16 388.22 C 458.12 387.55, 459.70 389.22, 459.77 391.08 C 459.75 393.14, 458.91 395.20, 458.05 397.04 C 453.56 406.08, 448.31 414.56, 443.25 423.28 C 441.57 426.10, 439.85 429.21, 437.58 431.61 C 436.69 432.76, 435.63 432.60, 434.33 432.82 C 433.50 430.50, 432.36 428.56, 432.81 426.00 C 433.90 415.97, 439.27 406.19, 445.18 398.18 C 448.11 394.62, 451.66 389.73, 456.16 388.22 Z"/>
  <path fill="rgba(240,201,145,1.000)" d="M 566.89 388.23 C 572.70 390.18, 576.06 394.63, 580.01 399.00 C 585.99 406.07, 591.23 414.68, 593.35 423.76 C 593.65 426.24, 594.62 430.39, 591.71 431.68 C 589.30 431.76, 588.03 430.09, 586.68 428.37 C 582.53 422.69, 579.50 416.35, 575.38 410.63 C 571.99 405.43, 567.79 400.40, 565.31 394.71 C 564.16 392.23, 564.65 389.84, 566.89 388.23 Z"/>
  <path fill="rgba(240,200,138,1.000)" d="M 514.66 392.32 C 516.97 395.55, 517.73 400.15, 518.28 404.01 C 519.25 411.76, 520.21 420.19, 518.75 427.92 C 518.31 430.71, 516.94 432.76, 515.04 434.78 C 513.44 433.91, 512.43 433.03, 511.66 431.36 C 507.85 423.72, 508.40 414.30, 508.61 406.00 C 508.85 401.56, 508.84 396.06, 511.08 392.09 C 511.92 390.59, 513.82 391.02, 514.66 392.32 Z"/>
  <path fill="rgba(56,32,21,1.000)" d="M 406.00 476.89 C 414.85 476.24, 424.38 480.10, 429.69 487.34 C 432.14 490.82, 434.16 494.79, 435.10 498.96 C 436.49 505.73, 435.44 513.18, 432.33 519.35 C 429.62 524.01, 425.76 528.37, 421.01 531.02 C 414.35 534.81, 406.34 535.55, 398.99 533.50 C 390.14 530.72, 384.19 525.13, 380.93 516.44 C 377.13 505.64, 380.47 491.78, 389.33 484.32 C 393.86 480.11, 399.77 477.22, 406.00 476.89 Z"/>
  <path fill="rgba(56,32,21,1.000)" d="M 396.44 486.51 C 392.67 487.93, 389.17 492.46, 391.62 496.43 C 395.01 501.01, 403.17 498.39, 404.07 493.01 C 405.28 488.73, 400.22 485.13, 396.44 486.51 Z"/>
  <path fill="rgba(56,33,21,1.000)" d="M 631.90 482.13 C 642.57 489.77, 646.15 504.87, 641.81 516.97 C 638.79 524.71, 631.67 530.98, 623.88 533.69 C 617.06 535.28, 609.56 534.97, 603.23 531.79 C 598.75 529.67, 594.96 525.91, 591.96 522.03 C 586.95 515.33, 586.61 506.10, 588.23 498.18 C 591.45 497.16, 592.07 493.78, 595.21 493.65 C 596.04 493.58, 596.93 494.71, 597.54 495.20 C 598.96 497.48, 601.24 498.97, 603.98 498.88 C 607.37 498.09, 610.97 495.86, 611.15 492.01 C 611.29 488.49, 608.33 486.52, 605.19 485.97 C 604.60 485.16, 604.02 484.34, 603.44 483.51 C 601.86 483.15, 600.27 482.80, 598.68 482.51 C 608.15 474.82, 622.18 475.02, 631.90 482.13 Z"/>
  <path fill="rgba(38,20,10,1.000)" d="M 598.68 482.51 C 600.27 482.80, 601.86 483.15, 603.44 483.51 C 604.02 484.34, 604.60 485.16, 605.19 485.97 C 600.74 486.58, 597.01 490.56, 597.54 495.20 C 596.93 494.71, 596.04 493.58, 595.21 493.65 C 592.07 493.78, 591.45 497.16, 588.23 498.18 C 589.95 491.61, 593.00 486.39, 598.68 482.51 Z"/>
  <path fill="rgba(250,246,241,1.000)" d="M 396.44 486.51 C 400.22 485.13, 405.28 488.73, 404.07 493.01 C 403.17 498.39, 395.01 501.01, 391.62 496.43 C 389.17 492.46, 392.67 487.93, 396.44 486.51 Z"/>
  <path fill="rgba(246,240,238,1.000)" d="M 605.19 485.97 C 608.33 486.52, 611.29 488.49, 611.15 492.01 C 610.97 495.86, 607.37 498.09, 603.98 498.88 C 601.24 498.97, 598.96 497.48, 597.54 495.20 C 597.01 490.56, 600.74 486.58, 605.19 485.97 Z"/>
  <path fill="rgba(69,36,27,1.000)" d="M 554.12 496.87 C 559.88 500.01, 564.45 505.27, 568.85 510.13 C 577.25 520.71, 581.84 536.08, 577.26 549.19 C 574.11 557.81, 568.28 565.61, 560.25 570.23 C 550.62 576.06, 540.06 577.56, 529.00 577.79 C 517.40 577.96, 505.80 577.94, 494.21 577.73 C 484.55 577.46, 475.40 576.71, 466.61 572.38 C 458.60 568.78, 452.46 562.31, 448.33 554.65 C 444.13 546.63, 443.34 536.80, 445.19 528.03 C 447.83 516.79, 455.37 507.32, 464.29 500.28 C 473.43 492.97, 484.50 489.13, 496.01 487.67 C 515.34 484.74, 536.95 486.95, 554.12 496.87 Z"/>
  <path fill="rgba(69,36,27,1.000)" d="M 493.87 495.80 C 481.08 497.69, 469.38 504.32, 460.94 514.07 C 457.22 517.95, 454.96 523.37, 453.55 528.47 C 451.49 537.15, 451.90 546.22, 457.41 553.57 C 461.98 559.52, 468.39 565.24, 475.76 567.28 C 480.07 568.65, 484.50 569.13, 489.00 569.31 C 500.27 569.76, 511.69 569.64, 523.00 569.62 C 530.43 569.53, 538.25 569.39, 545.47 567.51 C 551.51 565.59, 557.76 562.86, 562.02 558.02 C 568.37 551.43, 571.88 542.34, 570.39 533.18 C 569.23 524.11, 564.27 515.58, 557.44 509.58 C 547.74 500.54, 535.08 495.74, 522.00 494.53 C 512.45 493.35, 503.31 494.37, 493.87 495.80 Z"/>
  <path fill="rgba(251,174,162,1.000)" d="M 522.00 494.53 C 535.08 495.74, 547.74 500.54, 557.44 509.58 C 564.27 515.58, 569.23 524.11, 570.39 533.18 C 571.88 542.34, 568.37 551.43, 562.02 558.02 C 557.76 562.86, 551.51 565.59, 545.47 567.51 C 538.25 569.39, 530.43 569.53, 523.00 569.62 C 511.69 569.64, 500.27 569.76, 489.00 569.31 C 484.50 569.13, 480.07 568.65, 475.76 567.28 C 468.39 565.24, 461.98 559.52, 457.41 553.57 C 451.90 546.22, 451.49 537.15, 453.55 528.47 C 454.96 523.37, 457.22 517.95, 460.94 514.07 C 463.74 515.41, 464.79 513.32, 466.90 511.93 C 471.17 508.43, 476.44 506.20, 481.24 503.23 C 485.32 500.69, 489.34 499.12, 494.10 498.34 C 496.65 497.68, 500.21 497.75, 502.21 495.90 C 499.43 495.70, 496.65 495.69, 493.87 495.80 C 503.31 494.37, 512.45 493.35, 522.00 494.53 Z"/>
  <path fill="rgba(251,174,162,1.000)" d="M 485.29 545.70 C 486.64 546.84, 488.16 548.04, 490.00 548.12 C 494.04 547.61, 496.60 543.76, 497.39 540.05 C 498.28 535.29, 498.27 530.26, 497.51 525.49 C 496.62 522.97, 495.42 520.28, 492.74 519.28 C 490.95 518.67, 489.23 519.78, 487.91 520.90 C 484.40 524.07, 483.06 528.41, 482.64 532.99 C 482.33 537.61, 482.13 541.94, 485.29 545.70 Z"/>
  <path fill="rgba(251,174,162,1.000)" d="M 526.23 542.65 C 527.16 544.78, 528.87 547.06, 531.06 547.98 C 534.10 548.74, 536.34 547.24, 537.98 544.82 C 539.70 541.46, 540.65 537.80, 540.33 534.00 C 539.98 529.27, 538.73 524.25, 534.98 521.05 C 533.27 519.51, 530.88 518.90, 528.67 519.61 C 525.74 521.52, 525.02 524.72, 524.77 527.99 C 524.48 532.80, 524.60 538.07, 526.23 542.65 Z"/>
  <path fill="rgba(253,215,201,1.000)" d="M 493.87 495.80 C 496.65 495.69, 499.43 495.70, 502.21 495.90 C 500.21 497.75, 496.65 497.68, 494.10 498.34 C 489.34 499.12, 485.32 500.69, 481.24 503.23 C 476.44 506.20, 471.17 508.43, 466.90 511.93 C 464.79 513.32, 463.74 515.41, 460.94 514.07 C 469.38 504.32, 481.08 497.69, 493.87 495.80 Z"/>
  <path fill="rgba(252,203,176,1.000)" d="M 380.93 516.44 C 384.19 525.13, 390.14 530.72, 398.99 533.50 C 400.75 536.97, 402.96 540.00, 403.18 543.98 C 403.74 555.89, 394.79 567.67, 383.18 570.36 C 373.85 572.55, 364.00 572.18, 354.91 569.12 C 348.86 566.88, 343.55 562.46, 339.55 557.47 C 334.81 551.47, 333.12 542.94, 335.61 535.66 C 337.36 530.40, 341.17 525.87, 345.43 522.40 C 349.19 519.17, 354.61 517.63, 359.32 516.33 C 366.63 514.46, 373.63 515.24, 380.93 516.44 Z"/>
  <path fill="rgba(251,201,174,1.000)" d="M 659.72 515.39 C 669.49 516.14, 678.28 521.10, 684.21 528.84 C 688.80 535.17, 689.76 543.67, 687.11 550.98 C 684.86 557.25, 680.29 562.22, 674.68 565.69 C 662.23 573.43, 645.87 573.31, 632.83 567.13 C 625.23 562.90, 618.40 554.06, 619.39 544.96 C 619.54 540.56, 621.67 537.31, 623.88 533.69 C 631.67 530.98, 638.79 524.71, 641.81 516.97 C 647.89 516.08, 653.49 514.46, 659.72 515.39 Z"/>
  <path fill="rgba(125,45,41,1.000)" d="M 492.74 519.28 C 495.42 520.28, 496.62 522.97, 497.51 525.49 C 495.06 524.80, 492.26 522.15, 489.90 523.79 C 485.65 525.90, 485.83 531.24, 485.13 535.26 C 484.44 538.82, 485.81 542.14, 485.29 545.70 C 482.13 541.94, 482.33 537.61, 482.64 532.99 C 483.06 528.41, 484.40 524.07, 487.91 520.90 C 489.23 519.78, 490.95 518.67, 492.74 519.28 Z"/>
  <path fill="rgba(129,55,43,1.000)" d="M 534.98 521.05 C 538.73 524.25, 539.98 529.27, 540.33 534.00 C 540.65 537.80, 539.70 541.46, 537.98 544.82 C 536.71 540.03, 539.52 535.67, 537.22 530.67 C 535.96 528.47, 534.20 525.26, 531.91 524.12 C 527.90 523.05, 527.91 527.31, 526.99 529.98 C 525.61 534.22, 527.57 538.55, 526.23 542.65 C 524.60 538.07, 524.48 532.80, 524.77 527.99 C 525.02 524.72, 525.74 521.52, 528.67 519.61 C 530.88 518.90, 533.27 519.51, 534.98 521.05 Z"/>
  <path fill="rgba(251,201,186,1.000)" d="M 225.44 521.80 C 225.32 532.97, 226.32 544.48, 228.34 555.48 C 231.49 573.46, 238.60 590.77, 248.24 606.22 C 244.43 609.76, 239.11 611.70, 234.01 612.29 C 229.56 612.71, 224.85 611.64, 222.16 607.80 C 219.97 604.46, 222.18 600.50, 221.73 596.90 C 220.85 595.56, 219.74 594.26, 218.01 594.21 C 214.45 593.99, 211.25 594.47, 207.76 593.30 C 201.53 591.14, 197.05 585.68, 196.68 579.01 C 196.33 571.35, 198.22 563.46, 201.33 556.48 C 206.80 543.36, 215.59 531.92, 225.44 521.80 Z"/>
  <path fill="rgba(152,61,56,1.000)" d="M 497.51 525.49 C 498.27 530.26, 498.28 535.29, 497.39 540.05 C 496.60 543.76, 494.04 547.61, 490.00 548.12 C 488.16 548.04, 486.64 546.84, 485.29 545.70 C 485.81 542.14, 484.44 538.82, 485.13 535.26 C 485.83 531.24, 485.65 525.90, 489.90 523.79 C 492.26 522.15, 495.06 524.80, 497.51 525.49 Z"/>
  <path fill="rgba(250,197,182,1.000)" d="M 797.71 522.30 C 806.24 532.00, 816.21 542.49, 821.34 554.53 C 824.21 561.14, 826.83 568.72, 826.75 576.00 C 826.59 581.83, 824.45 588.05, 819.65 591.68 C 815.39 594.57, 810.90 594.47, 805.96 594.20 C 805.01 594.25, 802.57 593.99, 802.36 595.30 C 801.44 598.76, 803.31 603.73, 801.50 607.55 C 799.76 611.55, 795.00 612.82, 791.00 612.58 C 784.73 612.33, 779.39 609.62, 774.44 605.98 C 781.01 596.12, 786.04 585.07, 789.62 573.78 C 795.22 557.30, 797.84 539.68, 797.71 522.30 Z"/>
  <path fill="rgba(148,63,53,1.000)" d="M 531.91 524.12 C 534.20 525.26, 535.96 528.47, 537.22 530.67 C 539.52 535.67, 536.71 540.03, 537.98 544.82 C 536.34 547.24, 534.10 548.74, 531.06 547.98 C 528.87 547.06, 527.16 544.78, 526.23 542.65 C 527.57 538.55, 525.61 534.22, 526.99 529.98 C 527.91 527.31, 527.90 523.05, 531.91 524.12 Z"/>
  <path fill="rgba(250,189,175,1.000)" d="M 359.61 677.92 C 367.72 680.85, 376.07 682.63, 384.53 684.21 C 403.91 688.61, 423.21 690.29, 442.86 692.78 C 440.91 698.64, 439.05 704.72, 436.23 710.23 C 433.90 714.85, 427.50 715.14, 423.01 715.85 C 407.44 717.33, 391.61 717.15, 376.00 716.47 C 368.68 716.00, 360.54 715.74, 353.53 713.45 C 350.86 712.47, 348.23 711.15, 347.74 708.04 C 347.09 703.04, 350.66 699.08, 354.60 696.62 C 356.93 695.07, 359.97 694.64, 362.16 692.99 C 362.30 687.99, 360.36 682.86, 359.61 677.92 Z"/>
  <path fill="rgba(250,187,172,1.000)" d="M 663.22 678.54 C 662.43 683.39, 661.34 688.19, 660.77 693.06 C 664.66 694.78, 668.35 695.50, 671.50 698.52 C 674.41 701.06, 676.41 705.10, 675.06 708.94 C 674.10 711.41, 671.98 712.73, 669.53 713.45 C 661.00 715.90, 652.61 716.38, 643.80 716.76 C 629.13 716.93, 614.63 717.06, 599.99 715.83 C 596.72 715.43, 592.73 714.94, 590.00 712.97 C 586.55 710.23, 584.61 705.86, 583.06 701.85 C 581.97 698.88, 580.63 696.14, 580.50 692.95 C 599.71 690.89, 619.17 688.77, 638.02 684.47 C 646.53 682.83, 654.90 680.95, 663.22 678.54 Z"/>
</svg>
